<?xml version="1.0" encoding="utf-8"?>
<!-- Generator: Adobe Illustrator 16.0.4, SVG Export Plug-In . SVG Version: 6.00 Build 0)  -->
<!DOCTYPE svg PUBLIC "-//W3C//DTD SVG 1.1//EN" "http://www.w3.org/Graphics/SVG/1.1/DTD/svg11.dtd">
<svg version="1.1" id="Layer_1" xmlns="http://www.w3.org/2000/svg" xmlns:xlink="http://www.w3.org/1999/xlink" x="0px" y="0px"
	 width="1200px" height="800px" viewBox="0 0 1200 800" enable-background="new 0 0 1200 800" xml:space="preserve">
<g>
	<path d="M122.813,102.312l-8.613,15.762v11.797h-3.184v-11.797l-8.613-15.762h3.613l6.582,12.402l6.602-12.402H122.813z"/>
	<path d="M136.524,101.785c3.086,0,5.439,1.221,7.061,3.662s2.432,5.993,2.432,10.654c0,4.636-0.808,8.177-2.422,10.625
		c-1.615,2.448-3.972,3.672-7.07,3.672c-3.073,0-5.42-1.221-7.041-3.662s-2.432-5.986-2.432-10.635s0.807-8.196,2.422-10.645
		C131.087,103.009,133.438,101.785,136.524,101.785z M136.524,127.585c4.062,0,6.094-3.828,6.094-11.484
		c0-7.669-2.031-11.504-6.094-11.504c-1.979,0-3.486,0.993-4.521,2.979c-1.035,1.986-1.553,4.828-1.553,8.525
		c0,3.737,0.514,6.585,1.543,8.545C133.021,126.606,134.532,127.585,136.524,127.585z"/>
	<path d="M168.497,121.199c0,3.19-0.648,5.521-1.943,6.992c-1.296,1.472-3.265,2.207-5.908,2.207c-5.326,0-7.988-3.04-7.988-9.121
		v-18.965h3.203v18.672c0,4.401,1.595,6.602,4.785,6.602c1.602,0,2.776-0.521,3.525-1.562c0.749-1.042,1.123-2.734,1.123-5.078
		v-18.633h3.203V121.199z"/>
	<path d="M195.508,129.871h-4.004l-8.086-12.52h-3.555v12.52h-3.203v-27.559h7.793c2.617,0,4.684,0.635,6.201,1.904
		c1.517,1.27,2.275,3.037,2.275,5.303c0,1.68-0.554,3.174-1.66,4.482c-1.107,1.309-2.63,2.197-4.57,2.666L195.508,129.871z
		 M179.864,114.558h4.043c1.692,0,3.066-0.459,4.121-1.377s1.582-2.073,1.582-3.467c0-3.073-1.875-4.609-5.625-4.609h-4.121V114.558
		z"/>
	<path d="M238.458,105.359c-1.641-0.56-3.197-0.84-4.668-0.84c-1.667,0-3.024,0.381-4.072,1.143
		c-1.048,0.762-1.572,1.846-1.572,3.252c0,1.667,1.374,3.132,4.121,4.395c2.031,0.938,3.375,1.589,4.033,1.953
		c0.657,0.365,1.325,0.866,2.002,1.504c0.677,0.638,1.221,1.39,1.631,2.256c0.41,0.866,0.615,1.839,0.615,2.92
		c0,2.683-0.902,4.763-2.705,6.24c-1.804,1.478-3.929,2.217-6.377,2.217c-2.37,0-4.447-0.469-6.23-1.406l0.664-2.754
		c2.096,0.951,3.926,1.426,5.488,1.426c1.823,0,3.284-0.472,4.385-1.416c1.1-0.944,1.65-2.243,1.65-3.896
		c0-1.224-0.358-2.262-1.074-3.115c-0.716-0.853-2.038-1.722-3.965-2.607c-1.979-0.911-3.259-1.533-3.838-1.865
		c-0.58-0.332-1.156-0.791-1.729-1.377c-0.573-0.586-1.016-1.243-1.328-1.973c-0.312-0.729-0.469-1.523-0.469-2.383
		c0-2.278,0.82-4.056,2.461-5.332c1.641-1.276,3.717-1.914,6.23-1.914c1.836,0,3.659,0.28,5.469,0.84L238.458,105.359z"/>
	<path d="M265.469,129.871h-3.086v-23.633l-4.16,11.309h-3.027l-4.16-11.309v23.633h-3.086v-27.559h4.16l4.609,12.559l4.59-12.559
		h4.16V129.871z"/>
	<path d="M286.719,129.871H274.2v-2.793h4.746v-21.973H274.2v-2.793h12.52v2.793h-4.57v21.973h4.57V129.871z"/>
	<path d="M312.598,129.871h-15v-27.559h3.203v24.766h11.797V129.871z"/>
	<path d="M335.997,129.871h-14.395v-27.559h14.277v2.793h-11.074v8.535h10.645v2.793h-10.645v10.645h11.191V129.871z"/>
	<path d="M385.489,129.871h-3.086v-23.633l-4.16,11.309h-3.027l-4.16-11.309v23.633h-3.086v-27.559h4.16l4.609,12.559l4.59-12.559
		h4.16V129.871z"/>
	<path d="M411.583,129.871h-3.359l-3.047-9.648h-9.043l-3.086,9.648h-3.32l9.004-27.559h3.848L411.583,129.871z M404.258,117.429
		l-3.613-11.406l-3.594,11.406H404.258z"/>
	<path d="M436.172,129.871h-4.043l-9.316-13.516l-2.91,3.164v10.352H416.7v-27.559h3.203v13.203l12.227-13.203h3.691l-10.762,11.641
		L436.172,129.871z"/>
	<path d="M456.016,129.871h-14.395v-27.559h14.277v2.793h-11.074v8.535h10.645v2.793h-10.645v10.645h11.191V129.871z"/>
	<path d="M478.497,105.359c-1.641-0.56-3.196-0.84-4.668-0.84c-1.667,0-3.024,0.381-4.072,1.143s-1.572,1.846-1.572,3.252
		c0,1.667,1.374,3.132,4.121,4.395c2.031,0.938,3.376,1.589,4.033,1.953c0.657,0.365,1.325,0.866,2.002,1.504
		c0.677,0.638,1.221,1.39,1.631,2.256c0.41,0.866,0.615,1.839,0.615,2.92c0,2.683-0.901,4.763-2.705,6.24
		c-1.804,1.478-3.929,2.217-6.377,2.217c-2.37,0-4.446-0.469-6.23-1.406l0.664-2.754c2.097,0.951,3.926,1.426,5.488,1.426
		c1.823,0,3.284-0.472,4.385-1.416c1.101-0.944,1.65-2.243,1.65-3.896c0-1.224-0.358-2.262-1.074-3.115
		c-0.716-0.853-2.038-1.722-3.965-2.607c-1.979-0.911-3.259-1.533-3.838-1.865s-1.155-0.791-1.729-1.377s-1.016-1.243-1.328-1.973
		c-0.312-0.729-0.469-1.523-0.469-2.383c0-2.278,0.82-4.056,2.461-5.332c1.641-1.276,3.718-1.914,6.23-1.914
		c1.836,0,3.659,0.28,5.469,0.84L478.497,105.359z"/>
	<path d="M529.512,129.871h-3.086v-23.633l-4.16,11.309h-3.027l-4.16-11.309v23.633h-3.086v-27.559h4.16l4.609,12.559l4.59-12.559
		h4.16V129.871z"/>
	<path d="M552.032,129.871h-14.395v-27.559h14.277v2.793H540.84v8.535h10.645v2.793H540.84v10.645h11.191V129.871z"/>
	<path d="M600.567,129.871h-3.203v-13.672h-9.434v13.672h-3.204v-27.559h3.204v11.074h9.434v-11.074h3.203V129.871z"/>
	<path d="M627.617,129.871h-3.359l-3.047-9.648h-9.043l-3.086,9.648h-3.32l9.004-27.559h3.848L627.617,129.871z M620.293,117.429
		l-3.613-11.406l-3.594,11.406H620.293z"/>
	<path d="M633.652,102.312h6.992c2.643,0,4.758,0.664,6.348,1.992c1.588,1.328,2.383,3.158,2.383,5.488
		c0,2.344-0.791,4.216-2.373,5.615c-1.582,1.4-3.656,2.1-6.221,2.1h-3.926v12.363h-3.203V102.312z M636.855,114.714h3.477
		c3.762,0,5.645-1.575,5.645-4.727c0-1.458-0.512-2.637-1.533-3.535c-1.023-0.898-2.342-1.348-3.955-1.348h-3.633V114.714z"/>
	<path d="M657.656,102.312h6.992c2.643,0,4.758,0.664,6.348,1.992c1.588,1.328,2.383,3.158,2.383,5.488
		c0,2.344-0.791,4.216-2.373,5.615c-1.582,1.4-3.656,2.1-6.221,2.1h-3.926v12.363h-3.203V102.312z M660.859,114.714h3.477
		c3.762,0,5.645-1.575,5.645-4.727c0-1.458-0.512-2.637-1.533-3.535c-1.023-0.898-2.342-1.348-3.955-1.348h-3.633V114.714z"/>
	<path d="M698.906,102.312l-8.613,15.762v11.797h-3.184v-11.797l-8.613-15.762h3.613l6.582,12.402l6.602-12.402H698.906z"/>
	<path d="M122.813,150.312l-8.613,15.762v11.797h-3.184v-11.797l-8.613-15.762h3.613l6.582,12.402l6.602-12.402H122.813z"/>
	<path d="M136.524,149.785c3.086,0,5.439,1.221,7.061,3.662s2.432,5.993,2.432,10.654c0,4.636-0.808,8.177-2.422,10.625
		c-1.615,2.448-3.972,3.672-7.07,3.672c-3.073,0-5.42-1.221-7.041-3.662s-2.432-5.986-2.432-10.635s0.807-8.196,2.422-10.645
		C131.087,151.009,133.438,149.785,136.524,149.785z M136.524,175.585c4.062,0,6.094-3.828,6.094-11.484
		c0-7.669-2.031-11.504-6.094-11.504c-1.979,0-3.486,0.993-4.521,2.979c-1.035,1.986-1.553,4.828-1.553,8.525
		c0,3.737,0.514,6.585,1.543,8.545C133.021,174.606,134.532,175.585,136.524,175.585z"/>
	<path d="M168.497,169.199c0,3.19-0.648,5.521-1.943,6.992c-1.296,1.472-3.265,2.207-5.908,2.207c-5.326,0-7.988-3.04-7.988-9.121
		v-18.965h3.203v18.672c0,4.401,1.595,6.602,4.785,6.602c1.602,0,2.776-0.521,3.525-1.562c0.749-1.042,1.123-2.734,1.123-5.078
		v-18.633h3.203V169.199z"/>
	<path d="M195.508,177.871h-4.004l-8.086-12.52h-3.555v12.52h-3.203v-27.559h7.793c2.617,0,4.684,0.635,6.201,1.904
		c1.517,1.27,2.275,3.037,2.275,5.303c0,1.68-0.554,3.174-1.66,4.482c-1.107,1.309-2.63,2.197-4.57,2.666L195.508,177.871z
		 M179.864,162.558h4.043c1.692,0,3.066-0.459,4.121-1.377s1.582-2.073,1.582-3.467c0-3.073-1.875-4.609-5.625-4.609h-4.121V162.558
		z"/>
	<path d="M239.981,177.871h-14.395v-27.559h14.277v2.793H228.79v8.535h10.645v2.793H228.79v10.645h11.191V177.871z"/>
	<path d="M266.836,150.312l-8.613,15.762v11.797h-3.184v-11.797l-8.613-15.762h3.613l6.582,12.402l6.602-12.402H266.836z"/>
	<path d="M287.989,177.871h-14.395v-27.559h14.277v2.793h-11.074v8.535h10.645v2.793h-10.645v10.645h11.191V177.871z"/>
	<path d="M310.469,153.359c-1.641-0.56-3.197-0.84-4.668-0.84c-1.667,0-3.024,0.381-4.072,1.143
		c-1.048,0.762-1.572,1.846-1.572,3.252c0,1.667,1.374,3.132,4.121,4.395c2.031,0.938,3.375,1.589,4.033,1.953
		c0.657,0.365,1.325,0.866,2.002,1.504c0.677,0.638,1.221,1.39,1.631,2.256c0.41,0.866,0.615,1.839,0.615,2.92
		c0,2.683-0.902,4.763-2.705,6.24c-1.804,1.478-3.929,2.217-6.377,2.217c-2.37,0-4.447-0.469-6.23-1.406l0.664-2.754
		c2.096,0.951,3.926,1.426,5.488,1.426c1.823,0,3.284-0.472,4.385-1.416c1.1-0.944,1.65-2.243,1.65-3.896
		c0-1.224-0.358-2.262-1.074-3.115c-0.716-0.853-2.038-1.722-3.965-2.607c-1.979-0.911-3.259-1.533-3.838-1.865
		c-0.58-0.332-1.156-0.791-1.729-1.377c-0.573-0.586-1.016-1.243-1.328-1.973c-0.312-0.729-0.469-1.523-0.469-2.383
		c0-2.278,0.82-4.056,2.461-5.332c1.641-1.276,3.717-1.914,6.23-1.914c1.836,0,3.659,0.28,5.469,0.84L310.469,153.359z"/>
	<path d="M363.575,177.871h-3.359l-3.047-9.648h-9.043l-3.086,9.648h-3.32l9.004-27.559h3.848L363.575,177.871z M356.25,165.429
		l-3.613-11.406l-3.594,11.406H356.25z"/>
	<path d="M387.54,177.871h-4.004l-8.086-12.52h-3.555v12.52h-3.203v-27.559h7.793c2.617,0,4.684,0.635,6.201,1.904
		c1.517,1.27,2.275,3.037,2.275,5.303c0,1.68-0.554,3.174-1.66,4.482c-1.107,1.309-2.63,2.197-4.57,2.666L387.54,177.871z
		 M371.895,162.558h4.043c1.692,0,3.066-0.459,4.121-1.377s1.582-2.073,1.582-3.467c0-3.073-1.875-4.609-5.625-4.609h-4.121V162.558
		z"/>
	<path d="M408.008,177.871h-14.395v-27.559h14.277v2.793h-11.074v8.535h10.645v2.793h-10.645v10.645h11.191V177.871z"/>
	<path d="M459.551,177.871h-4.004l-8.086-12.52h-3.555v12.52h-3.203v-27.559h7.793c2.617,0,4.685,0.635,6.201,1.904
		s2.275,3.037,2.275,5.303c0,1.68-0.554,3.174-1.66,4.482s-2.63,2.197-4.57,2.666L459.551,177.871z M443.907,162.558h4.043
		c1.692,0,3.066-0.459,4.121-1.377s1.582-2.073,1.582-3.467c0-3.073-1.875-4.609-5.625-4.609h-4.121V162.558z"/>
	<path d="M480.02,177.871h-14.395v-27.559h14.277v2.793h-11.074v8.535h10.645v2.793h-10.645v10.645h11.191V177.871z"/>
	<path d="M504.629,177.871h-15v-27.559h3.203v24.766h11.797V177.871z"/>
	<path d="M526.758,177.871h-12.52v-2.793h4.746v-21.973h-4.746v-2.793h12.52v2.793h-4.57v21.973h4.57V177.871z"/>
	<path d="M552.032,177.871h-14.395v-27.559h14.277v2.793H540.84v8.535h10.645v2.793H540.84v10.645h11.191V177.871z"/>
	<path d="M576.25,153.105h-11.406v9.004h10.391v2.793h-10.391v12.969h-3.203v-27.559h14.609V153.105z"/>
	<path d="M616.602,149.785c3.086,0,5.439,1.221,7.061,3.662s2.432,5.993,2.432,10.654c0,4.636-0.809,8.177-2.422,10.625
		c-1.615,2.448-3.973,3.672-7.07,3.672c-3.074,0-5.42-1.221-7.041-3.662s-2.432-5.986-2.432-10.635s0.807-8.196,2.422-10.645
		C611.164,151.009,613.516,149.785,616.602,149.785z M616.602,175.585c4.062,0,6.094-3.828,6.094-11.484
		c0-7.669-2.031-11.504-6.094-11.504c-1.98,0-3.486,0.993-4.521,2.979c-1.035,1.986-1.553,4.828-1.553,8.525
		c0,3.737,0.514,6.585,1.543,8.545C613.098,174.606,614.609,175.585,616.602,175.585z"/>
	<path d="M648.965,177.871h-3.555l-9.883-21.758v21.758h-3.203v-27.559h3.574l9.922,21.562v-21.562h3.145V177.871z"/>
	<path d="M699.629,177.871h-3.359l-3.047-9.648h-9.043l-3.086,9.648h-3.32l9.004-27.559h3.848L699.629,177.871z M692.305,165.429
		l-3.613-11.406l-3.594,11.406H692.305z"/>
	<path d="M747.598,177.871h-4.004l-8.086-12.52h-3.555v12.52h-3.203v-27.559h7.793c2.617,0,4.684,0.635,6.201,1.904
		c1.516,1.27,2.275,3.037,2.275,5.303c0,1.68-0.555,3.174-1.66,4.482c-1.107,1.309-2.631,2.197-4.57,2.666L747.598,177.871z
		 M731.953,162.558h4.043c1.691,0,3.066-0.459,4.121-1.377s1.582-2.073,1.582-3.467c0-3.073-1.875-4.609-5.625-4.609h-4.121V162.558
		z"/>
	<path d="M760.625,149.785c3.086,0,5.439,1.221,7.061,3.662s2.432,5.993,2.432,10.654c0,4.636-0.809,8.177-2.422,10.625
		c-1.615,2.448-3.973,3.672-7.07,3.672c-3.074,0-5.42-1.221-7.041-3.662s-2.432-5.986-2.432-10.635s0.807-8.196,2.422-10.645
		C755.188,151.009,757.539,149.785,760.625,149.785z M760.625,175.585c4.062,0,6.094-3.828,6.094-11.484
		c0-7.669-2.031-11.504-6.094-11.504c-1.98,0-3.486,0.993-4.521,2.979c-1.035,1.986-1.553,4.828-1.553,8.525
		c0,3.737,0.514,6.585,1.543,8.545C757.121,174.606,758.633,175.585,760.625,175.585z"/>
	<path d="M792.598,169.199c0,3.19-0.648,5.521-1.943,6.992c-1.297,1.472-3.266,2.207-5.908,2.207c-5.326,0-7.988-3.04-7.988-9.121
		v-18.965h3.203v18.672c0,4.401,1.594,6.602,4.785,6.602c1.602,0,2.775-0.521,3.525-1.562c0.748-1.042,1.123-2.734,1.123-5.078
		v-18.633h3.203V169.199z"/>
	<path d="M817.559,175.917c-2.254,1.654-4.746,2.48-7.48,2.48c-3.582,0-6.297-1.214-8.145-3.643
		c-1.85-2.428-2.773-5.979-2.773-10.654c0-4.518,0.895-8.034,2.686-10.547c1.789-2.513,4.533-3.77,8.232-3.77
		c1.328,0,2.643,0.169,3.945,0.508c1.301,0.339,2.35,0.788,3.145,1.348l-1.055,2.52c-1.836-1.042-3.848-1.562-6.035-1.562
		c-2.527,0-4.412,0.925-5.654,2.773c-1.244,1.849-1.865,4.759-1.865,8.73c0,7.656,2.506,11.484,7.52,11.484
		c1.887,0,3.312-0.397,4.277-1.191v-6.797h-4.961v-2.773h8.164V175.917z"/>
	<path d="M840.605,177.871h-3.203v-13.672h-9.434v13.672h-3.203v-27.559h3.203v11.074h9.434v-11.074h3.203V177.871z"/>
	<path d="M872.773,150.312h5.43c3.605,0,6.496,1.228,8.672,3.682c2.174,2.455,3.262,5.824,3.262,10.107
		c0,4.375-1.104,7.764-3.311,10.166s-5.037,3.604-8.486,3.604h-5.566V150.312z M875.977,175.078h2.266
		c2.617,0,4.688-0.97,6.211-2.91c1.523-1.94,2.285-4.629,2.285-8.066c0-3.411-0.766-6.097-2.295-8.057
		c-1.531-1.959-3.598-2.939-6.201-2.939h-2.266V175.078z"/>
	<path d="M915.664,177.871h-3.359l-3.047-9.648h-9.043l-3.086,9.648h-3.32l9.004-27.559h3.848L915.664,177.871z M908.34,165.429
		l-3.613-11.406l-3.594,11.406H908.34z"/>
	<path d="M939.629,177.871h-4.004l-8.086-12.52h-3.555v12.52h-3.203v-27.559h7.793c2.617,0,4.684,0.635,6.201,1.904
		c1.516,1.27,2.275,3.037,2.275,5.303c0,1.68-0.555,3.174-1.66,4.482c-1.107,1.309-2.631,2.197-4.57,2.666L939.629,177.871z
		 M923.984,162.558h4.043c1.691,0,3.066-0.459,4.121-1.377s1.582-2.073,1.582-3.467c0-3.073-1.875-4.609-5.625-4.609h-4.121V162.558
		z"/>
	<path d="M964.258,177.871h-4.043l-9.316-13.516l-2.91,3.164v10.352h-3.203v-27.559h3.203v13.203l12.227-13.203h3.691
		l-10.762,11.641L964.258,177.871z"/>
	<path d="M1006.582,153.359c-1.641-0.56-3.197-0.84-4.668-0.84c-1.668,0-3.025,0.381-4.072,1.143
		c-1.049,0.762-1.572,1.846-1.572,3.252c0,1.667,1.373,3.132,4.121,4.395c2.031,0.938,3.375,1.589,4.033,1.953
		c0.656,0.365,1.324,0.866,2.002,1.504c0.676,0.638,1.221,1.39,1.631,2.256c0.41,0.866,0.615,1.839,0.615,2.92
		c0,2.683-0.902,4.763-2.705,6.24c-1.805,1.478-3.93,2.217-6.377,2.217c-2.371,0-4.447-0.469-6.23-1.406l0.664-2.754
		c2.096,0.951,3.926,1.426,5.488,1.426c1.822,0,3.283-0.472,4.385-1.416c1.1-0.944,1.65-2.243,1.65-3.896
		c0-1.224-0.359-2.262-1.074-3.115c-0.717-0.853-2.039-1.722-3.965-2.607c-1.98-0.911-3.26-1.533-3.838-1.865
		c-0.58-0.332-1.156-0.791-1.729-1.377c-0.574-0.586-1.016-1.243-1.328-1.973c-0.312-0.729-0.469-1.523-0.469-2.383
		c0-2.278,0.82-4.056,2.461-5.332c1.641-1.276,3.717-1.914,6.23-1.914c1.836,0,3.658,0.28,5.469,0.84L1006.582,153.359z"/>
	<path d="M1032.109,177.871h-14.395v-27.559h14.277v2.793h-11.074v8.535h10.645v2.793h-10.645v10.645h11.191V177.871z"/>
	<path d="M1059.688,177.871h-3.359l-3.047-9.648h-9.043l-3.086,9.648h-3.32l9.004-27.559h3.848L1059.688,177.871z M1052.363,165.429
		l-3.613-11.406l-3.594,11.406H1052.363z"/>
	<path d="M122.813,198.312l-8.613,15.762v11.797h-3.184v-11.797l-8.613-15.762h3.613l6.582,12.402l6.602-12.402H122.813z"/>
	<path d="M136.524,197.785c3.086,0,5.439,1.221,7.061,3.662s2.432,5.993,2.432,10.654c0,4.636-0.808,8.177-2.422,10.625
		c-1.615,2.448-3.972,3.672-7.07,3.672c-3.073,0-5.42-1.221-7.041-3.662s-2.432-5.986-2.432-10.635s0.807-8.196,2.422-10.645
		C131.087,199.009,133.438,197.785,136.524,197.785z M136.524,223.585c4.062,0,6.094-3.828,6.094-11.484
		c0-7.669-2.031-11.504-6.094-11.504c-1.979,0-3.486,0.993-4.521,2.979c-1.035,1.986-1.553,4.828-1.553,8.525
		c0,3.737,0.514,6.585,1.543,8.545C133.021,222.606,134.532,223.585,136.524,223.585z"/>
	<path d="M168.497,217.199c0,3.19-0.648,5.521-1.943,6.992c-1.296,1.472-3.265,2.207-5.908,2.207c-5.326,0-7.988-3.04-7.988-9.121
		v-18.965h3.203v18.672c0,4.401,1.595,6.602,4.785,6.602c1.602,0,2.776-0.521,3.525-1.562c0.749-1.042,1.123-2.734,1.123-5.078
		v-18.633h3.203V217.199z"/>
	<path d="M195.508,225.871h-4.004l-8.086-12.52h-3.555v12.52h-3.203v-27.559h7.793c2.617,0,4.684,0.635,6.201,1.904
		c1.517,1.27,2.275,3.037,2.275,5.303c0,1.68-0.554,3.174-1.66,4.482c-1.107,1.309-2.63,2.197-4.57,2.666L195.508,225.871z
		 M179.864,210.558h4.043c1.692,0,3.066-0.459,4.121-1.377s1.582-2.073,1.582-3.467c0-3.073-1.875-4.609-5.625-4.609h-4.121V210.558
		z"/>
	<path d="M238.458,201.359c-1.641-0.56-3.197-0.84-4.668-0.84c-1.667,0-3.024,0.381-4.072,1.143
		c-1.048,0.762-1.572,1.846-1.572,3.252c0,1.667,1.374,3.132,4.121,4.395c2.031,0.938,3.375,1.589,4.033,1.953
		c0.657,0.365,1.325,0.866,2.002,1.504c0.677,0.638,1.221,1.39,1.631,2.256c0.41,0.866,0.615,1.839,0.615,2.92
		c0,2.683-0.902,4.763-2.705,6.24c-1.804,1.478-3.929,2.217-6.377,2.217c-2.37,0-4.447-0.469-6.23-1.406l0.664-2.754
		c2.096,0.951,3.926,1.426,5.488,1.426c1.823,0,3.284-0.472,4.385-1.416c1.1-0.944,1.65-2.243,1.65-3.896
		c0-1.224-0.358-2.262-1.074-3.115c-0.716-0.853-2.038-1.722-3.965-2.607c-1.979-0.911-3.259-1.533-3.838-1.865
		c-0.58-0.332-1.156-0.791-1.729-1.377c-0.573-0.586-1.016-1.243-1.328-1.973c-0.312-0.729-0.469-1.523-0.469-2.383
		c0-2.278,0.82-4.056,2.461-5.332c1.641-1.276,3.717-1.914,6.23-1.914c1.836,0,3.659,0.28,5.469,0.84L238.458,201.359z"/>
	<path d="M268.145,225.871h-4.043l-9.316-13.516l-2.91,3.164v10.352h-3.203v-27.559h3.203v13.203l12.227-13.203h3.691
		l-10.762,11.641L268.145,225.871z"/>
	<path d="M286.719,225.871H274.2v-2.793h4.746v-21.973H274.2v-2.793h12.52v2.793h-4.57v21.973h4.57V225.871z"/>
	<path d="M312.911,225.871h-3.555l-9.883-21.758v21.758h-3.203v-27.559h3.574l9.922,21.562v-21.562h3.145V225.871z"/>
	<path d="M358.731,225.871h-12.52v-2.793h4.746v-21.973h-4.746v-2.793h12.52v2.793h-4.57v21.973h4.57V225.871z"/>
	<path d="M382.481,201.359c-1.641-0.56-3.197-0.84-4.668-0.84c-1.667,0-3.024,0.381-4.072,1.143
		c-1.048,0.762-1.572,1.846-1.572,3.252c0,1.667,1.374,3.132,4.121,4.395c2.031,0.938,3.375,1.589,4.033,1.953
		c0.657,0.365,1.325,0.866,2.002,1.504c0.677,0.638,1.221,1.39,1.631,2.256c0.41,0.866,0.615,1.839,0.615,2.92
		c0,2.683-0.902,4.763-2.705,6.24c-1.804,1.478-3.929,2.217-6.377,2.217c-2.37,0-4.447-0.469-6.23-1.406l0.664-2.754
		c2.096,0.951,3.926,1.426,5.488,1.426c1.823,0,3.284-0.472,4.385-1.416c1.1-0.944,1.65-2.243,1.65-3.896
		c0-1.224-0.358-2.262-1.074-3.115c-0.716-0.853-2.038-1.722-3.965-2.607c-1.979-0.911-3.259-1.533-3.838-1.865
		c-0.58-0.332-1.156-0.791-1.729-1.377c-0.573-0.586-1.016-1.243-1.328-1.973c-0.312-0.729-0.469-1.523-0.469-2.383
		c0-2.278,0.82-4.056,2.461-5.332c1.641-1.276,3.717-1.914,6.23-1.914c1.836,0,3.659,0.28,5.469,0.84L382.481,201.359z"/>
	<path d="M430.489,201.359c-1.641-0.56-3.196-0.84-4.668-0.84c-1.667,0-3.024,0.381-4.072,1.143
		c-1.048,0.762-1.572,1.846-1.572,3.252c0,1.667,1.374,3.132,4.121,4.395c2.031,0.938,3.376,1.589,4.033,1.953
		c0.657,0.365,1.325,0.866,2.002,1.504c0.677,0.638,1.221,1.39,1.631,2.256c0.41,0.866,0.615,1.839,0.615,2.92
		c0,2.683-0.901,4.763-2.705,6.24c-1.804,1.478-3.929,2.217-6.377,2.217c-2.37,0-4.447-0.469-6.23-1.406l0.664-2.754
		c2.096,0.951,3.926,1.426,5.488,1.426c1.823,0,3.284-0.472,4.385-1.416c1.101-0.944,1.65-2.243,1.65-3.896
		c0-1.224-0.358-2.262-1.074-3.115c-0.716-0.853-2.038-1.722-3.965-2.607c-1.979-0.911-3.259-1.533-3.838-1.865
		c-0.58-0.332-1.156-0.791-1.729-1.377c-0.573-0.586-1.016-1.243-1.328-1.973c-0.312-0.729-0.469-1.523-0.469-2.383
		c0-2.278,0.82-4.056,2.461-5.332c1.641-1.276,3.717-1.914,6.23-1.914c1.836,0,3.659,0.28,5.469,0.84L430.489,201.359z"/>
	<path d="M448.575,197.785c3.086,0,5.439,1.221,7.061,3.662s2.432,5.993,2.432,10.654c0,4.636-0.808,8.177-2.422,10.625
		c-1.614,2.448-3.972,3.672-7.07,3.672c-3.073,0-5.42-1.221-7.041-3.662s-2.432-5.986-2.432-10.635s0.808-8.196,2.422-10.645
		C443.138,199.009,445.489,197.785,448.575,197.785z M448.575,223.585c4.062,0,6.094-3.828,6.094-11.484
		c0-7.669-2.031-11.504-6.094-11.504c-1.979,0-3.486,0.993-4.521,2.979c-1.035,1.986-1.553,4.828-1.553,8.525
		c0,3.737,0.515,6.585,1.543,8.545C445.072,222.606,446.583,223.585,448.575,223.585z"/>
	<path d="M480.235,201.105h-11.406v9.004h10.391v2.793h-10.391v12.969h-3.203v-27.559h14.609V201.105z"/>
	<path d="M506.758,200.91h-8.496v24.961h-3.184V200.91h-8.535v-2.598h20.215V200.91z"/>
	<path d="M122.813,246.312l-8.613,15.762v11.797h-3.184v-11.797l-8.613-15.762h3.613l6.582,12.402l6.602-12.402H122.813z"/>
	<path d="M136.524,245.785c3.086,0,5.439,1.221,7.061,3.662s2.432,5.993,2.432,10.654c0,4.636-0.808,8.177-2.422,10.625
		c-1.615,2.448-3.972,3.672-7.07,3.672c-3.073,0-5.42-1.221-7.041-3.662s-2.432-5.986-2.432-10.635s0.807-8.196,2.422-10.645
		C131.087,247.009,133.438,245.785,136.524,245.785z M136.524,271.585c4.062,0,6.094-3.828,6.094-11.484
		c0-7.669-2.031-11.504-6.094-11.504c-1.979,0-3.486,0.993-4.521,2.979c-1.035,1.986-1.553,4.828-1.553,8.525
		c0,3.737,0.514,6.585,1.543,8.545C133.021,270.606,134.532,271.585,136.524,271.585z"/>
	<path d="M168.497,265.199c0,3.19-0.648,5.521-1.943,6.992c-1.296,1.472-3.265,2.207-5.908,2.207c-5.326,0-7.988-3.04-7.988-9.121
		v-18.965h3.203v18.672c0,4.401,1.595,6.602,4.785,6.602c1.602,0,2.776-0.521,3.525-1.562c0.749-1.042,1.123-2.734,1.123-5.078
		v-18.633h3.203V265.199z"/>
	<path d="M195.508,273.871h-4.004l-8.086-12.52h-3.555v12.52h-3.203v-27.559h7.793c2.617,0,4.684,0.635,6.201,1.904
		c1.517,1.27,2.275,3.037,2.275,5.303c0,1.68-0.554,3.174-1.66,4.482c-1.107,1.309-2.63,2.197-4.57,2.666L195.508,273.871z
		 M179.864,258.558h4.043c1.692,0,3.066-0.459,4.121-1.377s1.582-2.073,1.582-3.467c0-3.073-1.875-4.609-5.625-4.609h-4.121V258.558
		z"/>
	<path d="M243.458,246.312l-8.984,27.559h-3.848l-9.004-27.559h3.359l7.559,23.848l7.598-23.848H243.458z"/>
	<path d="M256.543,245.785c3.086,0,5.439,1.221,7.061,3.662s2.432,5.993,2.432,10.654c0,4.636-0.808,8.177-2.422,10.625
		c-1.615,2.448-3.972,3.672-7.07,3.672c-3.073,0-5.42-1.221-7.041-3.662s-2.432-5.986-2.432-10.635s0.807-8.196,2.422-10.645
		C251.107,247.009,253.458,245.785,256.543,245.785z M256.543,271.585c4.062,0,6.094-3.828,6.094-11.484
		c0-7.669-2.031-11.504-6.094-11.504c-1.979,0-3.486,0.993-4.521,2.979c-1.035,1.986-1.553,4.828-1.553,8.525
		c0,3.737,0.514,6.585,1.543,8.545C253.041,270.606,254.551,271.585,256.543,271.585z"/>
	<path d="M286.719,273.871H274.2v-2.793h4.746v-21.973H274.2v-2.793h12.52v2.793h-4.57v21.973h4.57V273.871z"/>
	<path d="M313.516,272.152c-2.162,1.498-4.668,2.246-7.52,2.246c-3.568,0-6.279-1.224-8.135-3.672
		c-1.855-2.448-2.783-5.989-2.783-10.625c0-4.479,0.898-7.985,2.695-10.518c1.797-2.532,4.538-3.799,8.223-3.799
		c1.328,0,2.643,0.169,3.945,0.508c1.302,0.339,2.35,0.788,3.145,1.348l-1.055,2.52c-1.836-1.042-3.848-1.562-6.035-1.562
		c-2.539,0-4.427,0.921-5.664,2.764c-1.237,1.843-1.855,4.756-1.855,8.74c0,7.656,2.506,11.484,7.52,11.484
		c2.122,0,4.297-0.651,6.523-1.953L313.516,272.152z"/>
	<path d="M335.997,273.871h-14.395v-27.559h14.277v2.793h-11.074v8.535h10.645v2.793h-10.645v10.645h11.191V273.871z"/>
	<path d="M382.735,273.871h-12.52v-2.793h4.746v-21.973h-4.746v-2.793h12.52v2.793h-4.57v21.973h4.57V273.871z"/>
	<path d="M406.485,249.359c-1.641-0.56-3.197-0.84-4.668-0.84c-1.667,0-3.024,0.381-4.072,1.143
		c-1.048,0.762-1.572,1.846-1.572,3.252c0,1.667,1.374,3.132,4.121,4.395c2.031,0.938,3.375,1.589,4.033,1.953
		c0.657,0.365,1.325,0.866,2.002,1.504c0.677,0.638,1.221,1.39,1.631,2.256c0.41,0.866,0.615,1.839,0.615,2.92
		c0,2.683-0.902,4.763-2.705,6.24c-1.804,1.478-3.929,2.217-6.377,2.217c-2.37,0-4.447-0.469-6.23-1.406l0.664-2.754
		c2.096,0.951,3.926,1.426,5.488,1.426c1.823,0,3.284-0.472,4.385-1.416c1.1-0.944,1.65-2.243,1.65-3.896
		c0-1.224-0.358-2.262-1.074-3.115c-0.716-0.853-2.038-1.722-3.965-2.607c-1.979-0.911-3.259-1.533-3.838-1.865
		c-0.58-0.332-1.156-0.791-1.729-1.377c-0.573-0.586-1.016-1.243-1.328-1.973c-0.312-0.729-0.469-1.523-0.469-2.383
		c0-2.278,0.82-4.056,2.461-5.332c1.641-1.276,3.717-1.914,6.23-1.914c1.836,0,3.659,0.28,5.469,0.84L406.485,249.359z"/>
	<path d="M459.59,273.871h-3.359l-3.047-9.648h-9.043l-3.086,9.648h-3.32l9.004-27.559h3.848L459.59,273.871z M452.266,261.429
		l-3.613-11.406l-3.594,11.406H452.266z"/>
	<path d="M507.793,246.312l-3.516,27.559h-2.969l-4.688-15.527l-4.668,15.527h-3.047l-3.438-27.559h3.164l2.324,22.402l4.062-13.555
		h3.203l4.082,13.594l2.363-22.441H507.793z"/>
	<path d="M531.602,273.871h-3.359l-3.047-9.648h-9.043l-3.086,9.648h-3.32l9.004-27.559h3.848L531.602,273.871z M524.278,261.429
		l-3.613-11.406l-3.594,11.406H524.278z"/>
	<path d="M555.508,246.312l-8.984,27.559h-3.848l-9.004-27.559h3.359l7.559,23.848l7.598-23.848H555.508z"/>
	<path d="M576.036,273.871h-14.395v-27.559h14.277v2.793h-11.074v8.535h10.645v2.793h-10.645v10.645h11.191V273.871z"/>
	<path d="M616.602,245.785c3.086,0,5.439,1.221,7.061,3.662s2.432,5.993,2.432,10.654c0,4.636-0.809,8.177-2.422,10.625
		c-1.615,2.448-3.973,3.672-7.07,3.672c-3.074,0-5.42-1.221-7.041-3.662s-2.432-5.986-2.432-10.635s0.807-8.196,2.422-10.645
		C611.164,247.009,613.516,245.785,616.602,245.785z M616.602,271.585c4.062,0,6.094-3.828,6.094-11.484
		c0-7.669-2.031-11.504-6.094-11.504c-1.98,0-3.486,0.993-4.521,2.979c-1.035,1.986-1.553,4.828-1.553,8.525
		c0,3.737,0.514,6.585,1.543,8.545C613.098,270.606,614.609,271.585,616.602,271.585z"/>
	<path d="M648.262,249.105h-11.406v9.004h10.391v2.793h-10.391v12.969h-3.203v-27.559h14.609V249.105z"/>
	<path d="M680.742,246.312h5.43c3.605,0,6.496,1.228,8.672,3.682c2.174,2.455,3.262,5.824,3.262,10.107
		c0,4.375-1.104,7.764-3.311,10.166s-5.037,3.604-8.486,3.604h-5.566V246.312z M683.945,271.078h2.266
		c2.617,0,4.688-0.97,6.211-2.91c1.523-1.94,2.285-4.629,2.285-8.066c0-3.411-0.766-6.097-2.295-8.057
		c-1.531-1.959-3.598-2.939-6.201-2.939h-2.266V271.078z"/>
	<path d="M718.789,273.871h-12.52v-2.793h4.746v-21.973h-4.746v-2.793h12.52v2.793h-4.57v21.973h4.57V273.871z"/>
	<path d="M742.539,249.359c-1.641-0.56-3.197-0.84-4.668-0.84c-1.668,0-3.025,0.381-4.072,1.143
		c-1.049,0.762-1.572,1.846-1.572,3.252c0,1.667,1.373,3.132,4.121,4.395c2.031,0.938,3.375,1.589,4.033,1.953
		c0.656,0.365,1.324,0.866,2.002,1.504c0.676,0.638,1.221,1.39,1.631,2.256c0.41,0.866,0.615,1.839,0.615,2.92
		c0,2.683-0.902,4.763-2.705,6.24c-1.805,1.478-3.93,2.217-6.377,2.217c-2.371,0-4.447-0.469-6.23-1.406l0.664-2.754
		c2.096,0.951,3.926,1.426,5.488,1.426c1.822,0,3.283-0.472,4.385-1.416c1.1-0.944,1.65-2.243,1.65-3.896
		c0-1.224-0.359-2.262-1.074-3.115c-0.717-0.853-2.039-1.722-3.965-2.607c-1.98-0.911-3.26-1.533-3.838-1.865
		c-0.58-0.332-1.156-0.791-1.729-1.377c-0.574-0.586-1.016-1.243-1.328-1.973c-0.312-0.729-0.469-1.523-0.469-2.383
		c0-2.278,0.82-4.056,2.461-5.332c1.641-1.276,3.717-1.914,6.23-1.914c1.836,0,3.658,0.28,5.469,0.84L742.539,249.359z"/>
	<path d="M769.59,272.152c-2.162,1.498-4.668,2.246-7.52,2.246c-3.568,0-6.279-1.224-8.135-3.672
		c-1.855-2.448-2.783-5.989-2.783-10.625c0-4.479,0.898-7.985,2.695-10.518c1.797-2.532,4.537-3.799,8.223-3.799
		c1.328,0,2.643,0.169,3.945,0.508c1.301,0.339,2.35,0.788,3.145,1.348l-1.055,2.52c-1.836-1.042-3.848-1.562-6.035-1.562
		c-2.539,0-4.428,0.921-5.664,2.764c-1.238,1.843-1.855,4.756-1.855,8.74c0,7.656,2.506,11.484,7.52,11.484
		c2.121,0,4.297-0.651,6.523-1.953L769.59,272.152z"/>
	<path d="M784.629,245.785c3.086,0,5.439,1.221,7.061,3.662s2.432,5.993,2.432,10.654c0,4.636-0.809,8.177-2.422,10.625
		c-1.615,2.448-3.973,3.672-7.07,3.672c-3.074,0-5.42-1.221-7.041-3.662s-2.432-5.986-2.432-10.635s0.807-8.196,2.422-10.645
		C779.191,247.009,781.543,245.785,784.629,245.785z M784.629,271.585c4.062,0,6.094-3.828,6.094-11.484
		c0-7.669-2.031-11.504-6.094-11.504c-1.98,0-3.486,0.993-4.521,2.979c-1.035,1.986-1.553,4.828-1.553,8.525
		c0,3.737,0.514,6.585,1.543,8.545C781.125,270.606,782.637,271.585,784.629,271.585z"/>
	<path d="M816.992,273.871h-3.555l-9.883-21.758v21.758h-3.203v-27.559h3.574l9.922,21.562v-21.562h3.145V273.871z"/>
	<path d="M841.602,272.152c-2.162,1.498-4.668,2.246-7.52,2.246c-3.568,0-6.279-1.224-8.135-3.672
		c-1.855-2.448-2.783-5.989-2.783-10.625c0-4.479,0.898-7.985,2.695-10.518c1.797-2.532,4.537-3.799,8.223-3.799
		c1.328,0,2.643,0.169,3.945,0.508c1.301,0.339,2.35,0.788,3.145,1.348l-1.055,2.52c-1.836-1.042-3.848-1.562-6.035-1.562
		c-2.539,0-4.428,0.921-5.664,2.764c-1.238,1.843-1.855,4.756-1.855,8.74c0,7.656,2.506,11.484,7.52,11.484
		c2.121,0,4.297-0.651,6.523-1.953L841.602,272.152z"/>
	<path d="M864.082,273.871h-14.395v-27.559h14.277v2.793h-11.074v8.535h10.645v2.793h-10.645v10.645h11.191V273.871z"/>
	<path d="M891.621,273.871h-4.004l-8.086-12.52h-3.555v12.52h-3.203v-27.559h7.793c2.617,0,4.684,0.635,6.201,1.904
		c1.516,1.27,2.275,3.037,2.275,5.303c0,1.68-0.555,3.174-1.66,4.482c-1.107,1.309-2.631,2.197-4.57,2.666L891.621,273.871z
		 M875.977,258.558h4.043c1.691,0,3.066-0.459,4.121-1.377s1.582-2.073,1.582-3.467c0-3.073-1.875-4.609-5.625-4.609h-4.121V258.558
		z"/>
	<path d="M914.824,248.91h-8.496v24.961h-3.184V248.91h-8.535v-2.598h20.215V248.91z"/>
	<path d="M934.824,273.871h-12.52v-2.793h4.746v-21.973h-4.746v-2.793h12.52v2.793h-4.57v21.973h4.57V273.871z"/>
	<path d="M961.016,273.871h-3.555l-9.883-21.758v21.758h-3.203v-27.559h3.574l9.922,21.562v-21.562h3.145V273.871z"/>
	<path d="M985.586,271.917c-2.254,1.654-4.746,2.48-7.48,2.48c-3.582,0-6.297-1.214-8.145-3.643
		c-1.85-2.428-2.773-5.979-2.773-10.654c0-4.518,0.895-8.034,2.686-10.547c1.789-2.513,4.533-3.77,8.232-3.77
		c1.328,0,2.643,0.169,3.945,0.508c1.301,0.339,2.35,0.788,3.145,1.348l-1.055,2.52c-1.836-1.042-3.848-1.562-6.035-1.562
		c-2.527,0-4.412,0.925-5.654,2.773c-1.244,1.849-1.865,4.759-1.865,8.73c0,7.656,2.506,11.484,7.52,11.484
		c1.887,0,3.312-0.397,4.277-1.191v-6.797h-4.961v-2.773h8.164V271.917z"/>
	<path d="M1033.633,272.152c-2.162,1.498-4.668,2.246-7.52,2.246c-3.568,0-6.279-1.224-8.135-3.672
		c-1.855-2.448-2.783-5.989-2.783-10.625c0-4.479,0.898-7.985,2.695-10.518c1.797-2.532,4.537-3.799,8.223-3.799
		c1.328,0,2.643,0.169,3.945,0.508c1.301,0.339,2.35,0.788,3.145,1.348l-1.055,2.52c-1.836-1.042-3.848-1.562-6.035-1.562
		c-2.539,0-4.428,0.921-5.664,2.764c-1.238,1.843-1.855,4.756-1.855,8.74c0,7.656,2.506,11.484,7.52,11.484
		c2.121,0,4.297-0.651,6.523-1.953L1033.633,272.152z"/>
	<path d="M1059.688,273.871h-3.359l-3.047-9.648h-9.043l-3.086,9.648h-3.32l9.004-27.559h3.848L1059.688,273.871z M1052.363,261.429
		l-3.613-11.406l-3.594,11.406H1052.363z"/>
	<path d="M1080.723,273.871h-15v-27.559h3.203v24.766h11.797V273.871z"/>
	<path d="M1105.605,273.871h-3.086v-23.633l-4.16,11.309h-3.027l-4.16-11.309v23.633h-3.086v-27.559h4.16l4.609,12.559l4.59-12.559
		h4.16V273.871z"/>
	<path d="M122.813,294.312l-8.613,15.762v11.797h-3.184v-11.797l-8.613-15.762h3.613l6.582,12.402l6.602-12.402H122.813z"/>
	<path d="M136.524,293.784c3.086,0,5.439,1.221,7.061,3.662s2.432,5.993,2.432,10.654c0,4.636-0.808,8.177-2.422,10.625
		c-1.615,2.448-3.972,3.672-7.07,3.672c-3.073,0-5.42-1.221-7.041-3.662s-2.432-5.986-2.432-10.635s0.807-8.196,2.422-10.645
		C131.087,295.008,133.438,293.784,136.524,293.784z M136.524,319.585c4.062,0,6.094-3.828,6.094-11.484
		c0-7.669-2.031-11.504-6.094-11.504c-1.979,0-3.486,0.993-4.521,2.979s-1.553,4.827-1.553,8.525c0,3.737,0.514,6.585,1.543,8.545
		C133.021,318.605,134.532,319.585,136.524,319.585z"/>
	<path d="M168.497,313.198c0,3.19-0.648,5.521-1.943,6.992c-1.296,1.472-3.265,2.207-5.908,2.207c-5.326,0-7.988-3.04-7.988-9.121
		v-18.965h3.203v18.672c0,4.401,1.595,6.602,4.785,6.602c1.602,0,2.776-0.521,3.525-1.562c0.749-1.042,1.123-2.734,1.123-5.078
		v-18.633h3.203V313.198z"/>
	<path d="M195.508,321.87h-4.004l-8.086-12.52h-3.555v12.52h-3.203v-27.559h7.793c2.617,0,4.684,0.635,6.201,1.904
		c1.517,1.27,2.275,3.037,2.275,5.303c0,1.68-0.554,3.174-1.66,4.482c-1.107,1.309-2.63,2.197-4.57,2.666L195.508,321.87z
		 M179.864,306.558h4.043c1.692,0,3.066-0.459,4.121-1.377s1.582-2.073,1.582-3.467c0-3.073-1.875-4.609-5.625-4.609h-4.121V306.558
		z"/>
	<path d="M240.586,321.87h-15v-27.559h3.203v24.766h11.797V321.87z"/>
	<path d="M262.715,321.87h-12.52v-2.793h4.746v-21.973h-4.746v-2.793h12.52v2.793h-4.57v21.973h4.57V321.87z"/>
	<path d="M273.594,294.312h6.992c2.643,0,4.759,0.664,6.348,1.992c1.588,1.328,2.383,3.157,2.383,5.488
		c0,2.344-0.791,4.216-2.373,5.615s-3.656,2.1-6.221,2.1h-3.926v12.363h-3.203V294.312z M276.797,306.714h3.477
		c3.763,0,5.645-1.575,5.645-4.727c0-1.458-0.511-2.637-1.533-3.535c-1.022-0.898-2.341-1.348-3.955-1.348h-3.633V306.714z"/>
	<path d="M310.469,297.358c-1.641-0.56-3.197-0.84-4.668-0.84c-1.667,0-3.024,0.381-4.072,1.143
		c-1.048,0.762-1.572,1.846-1.572,3.252c0,1.667,1.374,3.132,4.121,4.395c2.031,0.938,3.375,1.589,4.033,1.953
		c0.657,0.364,1.325,0.866,2.002,1.504c0.677,0.638,1.221,1.39,1.631,2.256s0.615,1.839,0.615,2.92c0,2.683-0.902,4.763-2.705,6.24
		c-1.804,1.478-3.929,2.217-6.377,2.217c-2.37,0-4.447-0.469-6.23-1.406l0.664-2.754c2.096,0.95,3.926,1.426,5.488,1.426
		c1.823,0,3.284-0.472,4.385-1.416c1.1-0.944,1.65-2.243,1.65-3.896c0-1.224-0.358-2.263-1.074-3.115
		c-0.716-0.853-2.038-1.722-3.965-2.607c-1.979-0.911-3.259-1.533-3.838-1.865c-0.58-0.332-1.156-0.791-1.729-1.377
		c-0.573-0.586-1.016-1.243-1.328-1.973s-0.469-1.523-0.469-2.383c0-2.278,0.82-4.056,2.461-5.332s3.717-1.914,6.23-1.914
		c1.836,0,3.659,0.28,5.469,0.84L310.469,297.358z"/>
	<path d="M363.575,321.87h-3.359l-3.047-9.648h-9.043l-3.086,9.648h-3.32l9.004-27.559h3.848L363.575,321.87z M356.25,309.429
		l-3.613-11.406l-3.594,11.406H356.25z"/>
	<path d="M387.54,321.87h-4.004l-8.086-12.52h-3.555v12.52h-3.203v-27.559h7.793c2.617,0,4.684,0.635,6.201,1.904
		c1.517,1.27,2.275,3.037,2.275,5.303c0,1.68-0.554,3.174-1.66,4.482c-1.107,1.309-2.63,2.197-4.57,2.666L387.54,321.87z
		 M371.895,306.558h4.043c1.692,0,3.066-0.459,4.121-1.377s1.582-2.073,1.582-3.467c0-3.073-1.875-4.609-5.625-4.609h-4.121V306.558
		z"/>
	<path d="M408.008,321.87h-14.395v-27.559h14.277v2.793h-11.074v8.535h10.645v2.793h-10.645v10.645h11.191V321.87z"/>
	<path d="M459.59,321.87h-3.359l-3.047-9.648h-9.043l-3.086,9.648h-3.32l9.004-27.559h3.848L459.59,321.87z M452.266,309.429
		l-3.613-11.406l-3.594,11.406H452.266z"/>
	<path d="M507.793,294.312l-3.516,27.559h-2.969l-4.688-15.527l-4.668,15.527h-3.047l-3.438-27.559h3.164l2.324,22.402l4.062-13.555
		h3.203l4.082,13.594l2.363-22.441H507.793z"/>
	<path d="M528.028,321.87h-14.395v-27.559h14.277v2.793h-11.074v8.535h10.645v2.793h-10.645v10.645h11.191V321.87z"/>
	<path d="M552.637,321.87h-15v-27.559h3.203v24.766h11.797V321.87z"/>
	<path d="M577.559,320.151c-2.161,1.497-4.668,2.246-7.52,2.246c-3.567,0-6.279-1.224-8.135-3.672s-2.783-5.989-2.783-10.625
		c0-4.479,0.898-7.985,2.695-10.518s4.538-3.799,8.223-3.799c1.328,0,2.644,0.169,3.945,0.508s2.351,0.788,3.145,1.348l-1.055,2.52
		c-1.836-1.042-3.848-1.562-6.035-1.562c-2.539,0-4.427,0.921-5.664,2.764s-1.855,4.756-1.855,8.74
		c0,7.656,2.507,11.484,7.52,11.484c2.122,0,4.297-0.651,6.523-1.953L577.559,320.151z"/>
	<path d="M592.599,293.784c3.086,0,5.439,1.221,7.061,3.662s2.432,5.993,2.432,10.654c0,4.636-0.809,8.177-2.422,10.625
		c-1.615,2.448-3.973,3.672-7.07,3.672c-3.074,0-5.42-1.221-7.041-3.662c-1.622-2.441-2.432-5.986-2.432-10.635
		s0.808-8.196,2.422-10.645C587.161,295.008,589.513,293.784,592.599,293.784z M592.599,319.585c4.062,0,6.094-3.828,6.094-11.484
		c0-7.669-2.031-11.504-6.094-11.504c-1.98,0-3.486,0.993-4.521,2.979s-1.553,4.827-1.553,8.525c0,3.737,0.514,6.585,1.543,8.545
		C589.095,318.605,590.606,319.585,592.599,319.585z"/>
	<path d="M625.527,321.87h-3.086v-23.633l-4.16,11.309h-3.027l-4.16-11.309v23.633h-3.086v-27.559h4.16l4.609,12.559l4.59-12.559
		h4.16V321.87z"/>
	<path d="M648.047,321.87h-14.395v-27.559h14.277v2.793h-11.074v8.535H647.5v2.793h-10.645v10.645h11.191V321.87z"/>
	<path d="M680.742,294.312h5.43c3.605,0,6.496,1.228,8.672,3.682c2.174,2.454,3.262,5.823,3.262,10.107
		c0,4.375-1.104,7.764-3.311,10.166s-5.037,3.604-8.486,3.604h-5.566V294.312z M683.945,319.077h2.266
		c2.617,0,4.688-0.97,6.211-2.91s2.285-4.629,2.285-8.066c0-3.411-0.766-6.097-2.295-8.057c-1.531-1.96-3.598-2.939-6.201-2.939
		h-2.266V319.077z"/>
	<path d="M718.789,321.87h-12.52v-2.793h4.746v-21.973h-4.746v-2.793h12.52v2.793h-4.57v21.973h4.57V321.87z"/>
	<path d="M742.539,297.358c-1.641-0.56-3.197-0.84-4.668-0.84c-1.668,0-3.025,0.381-4.072,1.143
		c-1.049,0.762-1.572,1.846-1.572,3.252c0,1.667,1.373,3.132,4.121,4.395c2.031,0.938,3.375,1.589,4.033,1.953
		c0.656,0.364,1.324,0.866,2.002,1.504c0.676,0.638,1.221,1.39,1.631,2.256s0.615,1.839,0.615,2.92c0,2.683-0.902,4.763-2.705,6.24
		c-1.805,1.478-3.93,2.217-6.377,2.217c-2.371,0-4.447-0.469-6.23-1.406l0.664-2.754c2.096,0.95,3.926,1.426,5.488,1.426
		c1.822,0,3.283-0.472,4.385-1.416c1.1-0.944,1.65-2.243,1.65-3.896c0-1.224-0.359-2.263-1.074-3.115
		c-0.717-0.853-2.039-1.722-3.965-2.607c-1.98-0.911-3.26-1.533-3.838-1.865c-0.58-0.332-1.156-0.791-1.729-1.377
		c-0.574-0.586-1.016-1.243-1.328-1.973s-0.469-1.523-0.469-2.383c0-2.278,0.82-4.056,2.461-5.332s3.717-1.914,6.23-1.914
		c1.836,0,3.658,0.28,5.469,0.84L742.539,297.358z"/>
	<path d="M770.801,296.909h-8.496v24.961h-3.184v-24.961h-8.535v-2.598h20.215V296.909z"/>
	<path d="M795.605,321.87h-4.004l-8.086-12.52h-3.555v12.52h-3.203v-27.559h7.793c2.617,0,4.684,0.635,6.201,1.904
		c1.516,1.27,2.275,3.037,2.275,5.303c0,1.68-0.555,3.174-1.66,4.482c-1.107,1.309-2.631,2.197-4.57,2.666L795.605,321.87z
		 M779.961,306.558h4.043c1.691,0,3.066-0.459,4.121-1.377s1.582-2.073,1.582-3.467c0-3.073-1.875-4.609-5.625-4.609h-4.121V306.558
		z"/>
	<path d="M819.648,321.87h-3.359l-3.047-9.648h-9.043l-3.086,9.648h-3.32l9.004-27.559h3.848L819.648,321.87z M812.324,309.429
		l-3.613-11.406l-3.594,11.406H812.324z"/>
	<path d="M841.602,320.151c-2.162,1.497-4.668,2.246-7.52,2.246c-3.568,0-6.279-1.224-8.135-3.672s-2.783-5.989-2.783-10.625
		c0-4.479,0.898-7.985,2.695-10.518s4.537-3.799,8.223-3.799c1.328,0,2.643,0.169,3.945,0.508c1.301,0.339,2.35,0.788,3.145,1.348
		l-1.055,2.52c-1.836-1.042-3.848-1.562-6.035-1.562c-2.539,0-4.428,0.921-5.664,2.764c-1.238,1.843-1.855,4.756-1.855,8.74
		c0,7.656,2.506,11.484,7.52,11.484c2.121,0,4.297-0.651,6.523-1.953L841.602,320.151z"/>
	<path d="M866.816,296.909h-8.496v24.961h-3.184v-24.961h-8.535v-2.598h20.215V296.909z"/>
	<path d="M886.816,321.87h-12.52v-2.793h4.746v-21.973h-4.746v-2.793h12.52v2.793h-4.57v21.973h4.57V321.87z"/>
	<path d="M904.648,293.784c3.086,0,5.439,1.221,7.061,3.662s2.432,5.993,2.432,10.654c0,4.636-0.809,8.177-2.422,10.625
		c-1.615,2.448-3.973,3.672-7.07,3.672c-3.074,0-5.42-1.221-7.041-3.662s-2.432-5.986-2.432-10.635s0.807-8.196,2.422-10.645
		C899.211,295.008,901.562,293.784,904.648,293.784z M904.648,319.585c4.062,0,6.094-3.828,6.094-11.484
		c0-7.669-2.031-11.504-6.094-11.504c-1.98,0-3.486,0.993-4.521,2.979s-1.553,4.827-1.553,8.525c0,3.737,0.514,6.585,1.543,8.545
		C901.145,318.605,902.656,319.585,904.648,319.585z"/>
	<path d="M937.012,321.87h-3.555l-9.883-21.758v21.758h-3.203v-27.559h3.574l9.922,21.562v-21.562h3.145V321.87z"/>
	<path d="M122.813,342.312l-8.613,15.761v11.797h-3.184v-11.797l-8.613-15.761h3.613l6.582,12.402l6.602-12.402H122.813z"/>
	<path d="M136.524,341.784c3.086,0,5.439,1.221,7.061,3.662c1.621,2.441,2.432,5.994,2.432,10.654c0,4.637-0.808,8.178-2.422,10.625
		c-1.615,2.449-3.972,3.672-7.07,3.672c-3.073,0-5.42-1.221-7.041-3.662s-2.432-5.986-2.432-10.635s0.807-8.195,2.422-10.645
		C131.087,343.008,133.438,341.784,136.524,341.784z M136.524,367.584c4.062,0,6.094-3.828,6.094-11.484
		c0-7.668-2.031-11.504-6.094-11.504c-1.979,0-3.486,0.994-4.521,2.979c-1.035,1.986-1.553,4.828-1.553,8.525
		c0,3.738,0.514,6.586,1.543,8.545C133.021,366.606,134.532,367.584,136.524,367.584z"/>
	<path d="M168.497,361.198c0,3.191-0.648,5.521-1.943,6.992c-1.296,1.473-3.265,2.207-5.908,2.207c-5.326,0-7.988-3.039-7.988-9.121
		v-18.964h3.203v18.671c0,4.402,1.595,6.602,4.785,6.602c1.602,0,2.776-0.52,3.525-1.562c0.749-1.041,1.123-2.734,1.123-5.078
		v-18.632h3.203V361.198z"/>
	<path d="M240.196,345.104H228.79v9.004h10.391v2.793H228.79v12.969h-3.203v-27.558h14.609V345.104z"/>
	<path d="M264.512,361.198c0,3.191-0.648,5.521-1.943,6.992c-1.296,1.473-3.265,2.207-5.908,2.207c-5.326,0-7.988-3.039-7.988-9.121
		v-18.964h3.203v18.671c0,4.402,1.595,6.602,4.785,6.602c1.602,0,2.776-0.52,3.525-1.562c0.749-1.041,1.123-2.734,1.123-5.078
		v-18.632h3.203V361.198z"/>
	<path d="M288.594,369.87h-15v-27.558h3.203v24.765h11.797V369.87z"/>
	<path d="M312.208,345.104h-11.406v9.004h10.391v2.793h-10.391v12.969h-3.203v-27.558h14.609V345.104z"/>
	<path d="M334.727,369.87h-12.52v-2.793h4.746v-21.973h-4.746v-2.792h12.52v2.792h-4.57v21.973h4.57V369.87z"/>
	<path d="M360.606,369.87h-15v-27.558h3.203v24.765h11.797V369.87z"/>
	<path d="M384.61,369.87h-15v-27.558h3.203v24.765h11.797V369.87z"/>
	<path d="M457.5,369.87h-3.086v-23.633l-4.16,11.309h-3.027l-4.16-11.309v23.633h-3.086v-27.558h4.16l4.609,12.558l4.59-12.558h4.16
		V369.87z"/>
	<path d="M480.02,369.87h-14.395v-27.558h14.277v2.792h-11.074v8.535h10.645v2.793h-10.645v10.645h11.191V369.87z"/>
</g>
<text transform="matrix(1 0 0 1 1321.6387 -235.4624)"><tspan x="0" y="0" font-family="'AndaleMono'" font-size="40">YOUR SMILE MAKES ME UNHAPPY</tspan><tspan x="0" y="48" font-family="'AndaleMono'" font-size="40">YOUR EYES ARE IMMOVABLE WALLS </tspan><tspan x="0" y="96" font-family="'AndaleMono'" font-size="40">YOUR SKIN IS SOFT</tspan><tspan x="0" y="144" font-family="'AndaleMono'" font-size="40">YOUR VOICE REMINDS ME OF DAYS WE SPENT ALONE TOGETHER AND </tspan><tspan x="0" y="192" font-family="'AndaleMono'" font-size="40">YOUR LIPS ARE A WELCOME DISTRACTION</tspan><tspan x="0" y="240" font-family="'AndaleMono'" font-size="40">YOU  MAKE  ME  MISERABLE</tspan><tspan x="0" y="288" font-family="'AndaleMono'" font-size="40">     &amp; HAPPY &amp; COLD</tspan><tspan x="0" y="336" font-family="'AndaleMono'" font-size="40">     &amp; ANXIOUS &amp; I DONT KNOW WHETHER</tspan><tspan x="0" y="384" font-family="'AndaleMono'" font-size="40">                 TO FEEL WARM</tspan><tspan x="0" y="432" font-family="'AndaleMono'" font-size="40" letter-spacing="11">										</tspan><tspan x="360" y="432" font-family="'AndaleMono'" font-size="40">OR</tspan><tspan x="0" y="480" font-family="'AndaleMono'" font-size="40">                 W/OUT A HOME</tspan></text>
</svg>
