<?xml version="1.0" encoding="utf-8"?>
<!-- Generator: Adobe Illustrator 16.0.4, SVG Export Plug-In . SVG Version: 6.00 Build 0)  -->
<!DOCTYPE svg PUBLIC "-//W3C//DTD SVG 1.1//EN" "http://www.w3.org/Graphics/SVG/1.1/DTD/svg11.dtd">
<svg version="1.1" id="Layer_1" xmlns="http://www.w3.org/2000/svg" xmlns:xlink="http://www.w3.org/1999/xlink" x="0px" y="0px"
	 width="1200px" height="800px" viewBox="0 0 1200 800" enable-background="new 0 0 1200 800" xml:space="preserve">
<text transform="matrix(1 0 0 1 100.9033 129.8706)" font-family="'AndaleMono'" font-size="40">I DON’T KNOW WHAT TO FEEL</text>
<g>
	<path d="M122.813-309.473l-8.613,15.762v11.797h-3.184v-11.797l-8.613-15.762h3.613l6.582,12.402l6.602-12.402H122.813z"/>
	<path d="M136.524-310c3.086,0,5.439,1.221,7.061,3.662s2.432,5.993,2.432,10.654c0,4.636-0.808,8.177-2.422,10.625
		c-1.615,2.448-3.972,3.672-7.07,3.672c-3.073,0-5.42-1.221-7.041-3.662s-2.432-5.986-2.432-10.635s0.807-8.196,2.422-10.645
		C131.087-308.776,133.438-310,136.524-310z M136.524-284.199c4.062,0,6.094-3.828,6.094-11.484c0-7.669-2.031-11.504-6.094-11.504
		c-1.979,0-3.486,0.993-4.521,2.979c-1.035,1.986-1.553,4.828-1.553,8.525c0,3.737,0.514,6.585,1.543,8.545
		C133.021-285.179,134.532-284.199,136.524-284.199z"/>
	<path d="M168.497-290.586c0,3.19-0.648,5.521-1.943,6.992c-1.296,1.472-3.265,2.207-5.908,2.207c-5.326,0-7.988-3.04-7.988-9.121
		v-18.965h3.203v18.672c0,4.401,1.595,6.602,4.785,6.602c1.602,0,2.776-0.521,3.525-1.562c0.749-1.042,1.123-2.734,1.123-5.078
		v-18.633h3.203V-290.586z"/>
	<path d="M195.508-281.914h-4.004l-8.086-12.52h-3.555v12.52h-3.203v-27.559h7.793c2.617,0,4.684,0.635,6.201,1.904
		c1.517,1.27,2.275,3.037,2.275,5.303c0,1.68-0.554,3.174-1.66,4.482c-1.107,1.309-2.63,2.197-4.57,2.666L195.508-281.914z
		 M179.864-297.227h4.043c1.692,0,3.066-0.459,4.121-1.377s1.582-2.073,1.582-3.467c0-3.073-1.875-4.609-5.625-4.609h-4.121
		V-297.227z"/>
	<path d="M238.458-306.426c-1.641-0.56-3.197-0.84-4.668-0.84c-1.667,0-3.024,0.381-4.072,1.143
		c-1.048,0.762-1.572,1.846-1.572,3.252c0,1.667,1.374,3.132,4.121,4.395c2.031,0.938,3.375,1.589,4.033,1.953
		c0.657,0.365,1.325,0.866,2.002,1.504c0.677,0.638,1.221,1.39,1.631,2.256c0.41,0.866,0.615,1.839,0.615,2.92
		c0,2.683-0.902,4.763-2.705,6.24c-1.804,1.478-3.929,2.217-6.377,2.217c-2.37,0-4.447-0.469-6.23-1.406l0.664-2.754
		c2.096,0.951,3.926,1.426,5.488,1.426c1.823,0,3.284-0.472,4.385-1.416c1.1-0.944,1.65-2.243,1.65-3.896
		c0-1.224-0.358-2.262-1.074-3.115c-0.716-0.853-2.038-1.722-3.965-2.607c-1.979-0.911-3.259-1.533-3.838-1.865
		c-0.58-0.332-1.156-0.791-1.729-1.377c-0.573-0.586-1.016-1.243-1.328-1.973c-0.312-0.729-0.469-1.523-0.469-2.383
		c0-2.278,0.82-4.056,2.461-5.332c1.641-1.276,3.717-1.914,6.23-1.914c1.836,0,3.659,0.28,5.469,0.84L238.458-306.426z"/>
	<path d="M265.469-281.914h-3.086v-23.633l-4.16,11.309h-3.027l-4.16-11.309v23.633h-3.086v-27.559h4.16l4.609,12.559l4.59-12.559
		h4.16V-281.914z"/>
	<path d="M286.719-281.914H274.2v-2.793h4.746v-21.973H274.2v-2.793h12.52v2.793h-4.57v21.973h4.57V-281.914z"/>
	<path d="M312.598-281.914h-15v-27.559h3.203v24.766h11.797V-281.914z"/>
	<path d="M335.997-281.914h-14.395v-27.559h14.277v2.793h-11.074v8.535h10.645v2.793h-10.645v10.645h11.191V-281.914z"/>
	<path d="M385.489-281.914h-3.086v-23.633l-4.16,11.309h-3.027l-4.16-11.309v23.633h-3.086v-27.559h4.16l4.609,12.559l4.59-12.559
		h4.16V-281.914z"/>
	<path d="M411.583-281.914h-3.359l-3.047-9.648h-9.043l-3.086,9.648h-3.32l9.004-27.559h3.848L411.583-281.914z M404.258-294.355
		l-3.613-11.406l-3.594,11.406H404.258z"/>
	<path d="M436.172-281.914h-4.043l-9.316-13.516l-2.91,3.164v10.352H416.7v-27.559h3.203v13.203l12.227-13.203h3.691l-10.762,11.641
		L436.172-281.914z"/>
	<path d="M456.016-281.914h-14.395v-27.559h14.277v2.793h-11.074v8.535h10.645v2.793h-10.645v10.645h11.191V-281.914z"/>
	<path d="M478.497-306.426c-1.641-0.56-3.196-0.84-4.668-0.84c-1.667,0-3.024,0.381-4.072,1.143s-1.572,1.846-1.572,3.252
		c0,1.667,1.374,3.132,4.121,4.395c2.031,0.938,3.376,1.589,4.033,1.953c0.657,0.365,1.325,0.866,2.002,1.504
		c0.677,0.638,1.221,1.39,1.631,2.256c0.41,0.866,0.615,1.839,0.615,2.92c0,2.683-0.901,4.763-2.705,6.24
		c-1.804,1.478-3.929,2.217-6.377,2.217c-2.37,0-4.446-0.469-6.23-1.406l0.664-2.754c2.097,0.951,3.926,1.426,5.488,1.426
		c1.823,0,3.284-0.472,4.385-1.416c1.101-0.944,1.65-2.243,1.65-3.896c0-1.224-0.358-2.262-1.074-3.115
		c-0.716-0.853-2.038-1.722-3.965-2.607c-1.979-0.911-3.259-1.533-3.838-1.865s-1.155-0.791-1.729-1.377s-1.016-1.243-1.328-1.973
		c-0.312-0.729-0.469-1.523-0.469-2.383c0-2.278,0.82-4.056,2.461-5.332c1.641-1.276,3.718-1.914,6.23-1.914
		c1.836,0,3.659,0.28,5.469,0.84L478.497-306.426z"/>
	<path d="M529.512-281.914h-3.086v-23.633l-4.16,11.309h-3.027l-4.16-11.309v23.633h-3.086v-27.559h4.16l4.609,12.559l4.59-12.559
		h4.16V-281.914z"/>
	<path d="M552.032-281.914h-14.395v-27.559h14.277v2.793H540.84v8.535h10.645v2.793H540.84v10.645h11.191V-281.914z"/>
	<path d="M600.567-281.914h-3.203v-13.672h-9.434v13.672h-3.204v-27.559h3.204v11.074h9.434v-11.074h3.203V-281.914z"/>
	<path d="M627.617-281.914h-3.359l-3.047-9.648h-9.043l-3.086,9.648h-3.32l9.004-27.559h3.848L627.617-281.914z M620.293-294.355
		l-3.613-11.406l-3.594,11.406H620.293z"/>
	<path d="M633.652-309.473h6.992c2.643,0,4.758,0.664,6.348,1.992c1.588,1.328,2.383,3.158,2.383,5.488
		c0,2.344-0.791,4.216-2.373,5.615c-1.582,1.4-3.656,2.1-6.221,2.1h-3.926v12.363h-3.203V-309.473z M636.855-297.07h3.477
		c3.762,0,5.645-1.575,5.645-4.727c0-1.458-0.512-2.637-1.533-3.535c-1.023-0.898-2.342-1.348-3.955-1.348h-3.633V-297.07z"/>
	<path d="M657.656-309.473h6.992c2.643,0,4.758,0.664,6.348,1.992c1.588,1.328,2.383,3.158,2.383,5.488
		c0,2.344-0.791,4.216-2.373,5.615c-1.582,1.4-3.656,2.1-6.221,2.1h-3.926v12.363h-3.203V-309.473z M660.859-297.07h3.477
		c3.762,0,5.645-1.575,5.645-4.727c0-1.458-0.512-2.637-1.533-3.535c-1.023-0.898-2.342-1.348-3.955-1.348h-3.633V-297.07z"/>
	<path d="M698.906-309.473l-8.613,15.762v11.797h-3.184v-11.797l-8.613-15.762h3.613l6.582,12.402l6.602-12.402H698.906z"/>
	<path d="M122.813-261.473l-8.613,15.762v11.797h-3.184v-11.797l-8.613-15.762h3.613l6.582,12.402l6.602-12.402H122.813z"/>
	<path d="M136.524-262c3.086,0,5.439,1.221,7.061,3.662s2.432,5.993,2.432,10.654c0,4.636-0.808,8.177-2.422,10.625
		c-1.615,2.448-3.972,3.672-7.07,3.672c-3.073,0-5.42-1.221-7.041-3.662s-2.432-5.986-2.432-10.635s0.807-8.196,2.422-10.645
		C131.087-260.776,133.438-262,136.524-262z M136.524-236.199c4.062,0,6.094-3.828,6.094-11.484c0-7.669-2.031-11.504-6.094-11.504
		c-1.979,0-3.486,0.993-4.521,2.979c-1.035,1.986-1.553,4.828-1.553,8.525c0,3.737,0.514,6.585,1.543,8.545
		C133.021-237.179,134.532-236.199,136.524-236.199z"/>
	<path d="M168.497-242.586c0,3.19-0.648,5.521-1.943,6.992c-1.296,1.472-3.265,2.207-5.908,2.207c-5.326,0-7.988-3.04-7.988-9.121
		v-18.965h3.203v18.672c0,4.401,1.595,6.602,4.785,6.602c1.602,0,2.776-0.521,3.525-1.562c0.749-1.042,1.123-2.734,1.123-5.078
		v-18.633h3.203V-242.586z"/>
	<path d="M195.508-233.914h-4.004l-8.086-12.52h-3.555v12.52h-3.203v-27.559h7.793c2.617,0,4.684,0.635,6.201,1.904
		c1.517,1.27,2.275,3.037,2.275,5.303c0,1.68-0.554,3.174-1.66,4.482c-1.107,1.309-2.63,2.197-4.57,2.666L195.508-233.914z
		 M179.864-249.227h4.043c1.692,0,3.066-0.459,4.121-1.377s1.582-2.073,1.582-3.467c0-3.073-1.875-4.609-5.625-4.609h-4.121
		V-249.227z"/>
	<path d="M239.981-233.914h-14.395v-27.559h14.277v2.793H228.79v8.535h10.645v2.793H228.79v10.645h11.191V-233.914z"/>
	<path d="M266.836-261.473l-8.613,15.762v11.797h-3.184v-11.797l-8.613-15.762h3.613l6.582,12.402l6.602-12.402H266.836z"/>
	<path d="M287.989-233.914h-14.395v-27.559h14.277v2.793h-11.074v8.535h10.645v2.793h-10.645v10.645h11.191V-233.914z"/>
	<path d="M310.469-258.426c-1.641-0.56-3.197-0.84-4.668-0.84c-1.667,0-3.024,0.381-4.072,1.143
		c-1.048,0.762-1.572,1.846-1.572,3.252c0,1.667,1.374,3.132,4.121,4.395c2.031,0.938,3.375,1.589,4.033,1.953
		c0.657,0.365,1.325,0.866,2.002,1.504c0.677,0.638,1.221,1.39,1.631,2.256c0.41,0.866,0.615,1.839,0.615,2.92
		c0,2.683-0.902,4.763-2.705,6.24c-1.804,1.478-3.929,2.217-6.377,2.217c-2.37,0-4.447-0.469-6.23-1.406l0.664-2.754
		c2.096,0.951,3.926,1.426,5.488,1.426c1.823,0,3.284-0.472,4.385-1.416c1.1-0.944,1.65-2.243,1.65-3.896
		c0-1.224-0.358-2.262-1.074-3.115c-0.716-0.853-2.038-1.722-3.965-2.607c-1.979-0.911-3.259-1.533-3.838-1.865
		c-0.58-0.332-1.156-0.791-1.729-1.377c-0.573-0.586-1.016-1.243-1.328-1.973c-0.312-0.729-0.469-1.523-0.469-2.383
		c0-2.278,0.82-4.056,2.461-5.332c1.641-1.276,3.717-1.914,6.23-1.914c1.836,0,3.659,0.28,5.469,0.84L310.469-258.426z"/>
	<path d="M363.575-233.914h-3.359l-3.047-9.648h-9.043l-3.086,9.648h-3.32l9.004-27.559h3.848L363.575-233.914z M356.25-246.355
		l-3.613-11.406l-3.594,11.406H356.25z"/>
	<path d="M387.54-233.914h-4.004l-8.086-12.52h-3.555v12.52h-3.203v-27.559h7.793c2.617,0,4.684,0.635,6.201,1.904
		c1.517,1.27,2.275,3.037,2.275,5.303c0,1.68-0.554,3.174-1.66,4.482c-1.107,1.309-2.63,2.197-4.57,2.666L387.54-233.914z
		 M371.895-249.227h4.043c1.692,0,3.066-0.459,4.121-1.377s1.582-2.073,1.582-3.467c0-3.073-1.875-4.609-5.625-4.609h-4.121
		V-249.227z"/>
	<path d="M408.008-233.914h-14.395v-27.559h14.277v2.793h-11.074v8.535h10.645v2.793h-10.645v10.645h11.191V-233.914z"/>
	<path d="M459.551-233.914h-4.004l-8.086-12.52h-3.555v12.52h-3.203v-27.559h7.793c2.617,0,4.685,0.635,6.201,1.904
		s2.275,3.037,2.275,5.303c0,1.68-0.554,3.174-1.66,4.482s-2.63,2.197-4.57,2.666L459.551-233.914z M443.907-249.227h4.043
		c1.692,0,3.066-0.459,4.121-1.377s1.582-2.073,1.582-3.467c0-3.073-1.875-4.609-5.625-4.609h-4.121V-249.227z"/>
	<path d="M480.02-233.914h-14.395v-27.559h14.277v2.793h-11.074v8.535h10.645v2.793h-10.645v10.645h11.191V-233.914z"/>
	<path d="M504.629-233.914h-15v-27.559h3.203v24.766h11.797V-233.914z"/>
	<path d="M526.758-233.914h-12.52v-2.793h4.746v-21.973h-4.746v-2.793h12.52v2.793h-4.57v21.973h4.57V-233.914z"/>
	<path d="M552.032-233.914h-14.395v-27.559h14.277v2.793H540.84v8.535h10.645v2.793H540.84v10.645h11.191V-233.914z"/>
	<path d="M576.25-258.68h-11.406v9.004h10.391v2.793h-10.391v12.969h-3.203v-27.559h14.609V-258.68z"/>
	<path d="M616.602-262c3.086,0,5.439,1.221,7.061,3.662s2.432,5.993,2.432,10.654c0,4.636-0.809,8.177-2.422,10.625
		c-1.615,2.448-3.973,3.672-7.07,3.672c-3.074,0-5.42-1.221-7.041-3.662s-2.432-5.986-2.432-10.635s0.807-8.196,2.422-10.645
		C611.164-260.776,613.516-262,616.602-262z M616.602-236.199c4.062,0,6.094-3.828,6.094-11.484c0-7.669-2.031-11.504-6.094-11.504
		c-1.98,0-3.486,0.993-4.521,2.979c-1.035,1.986-1.553,4.828-1.553,8.525c0,3.737,0.514,6.585,1.543,8.545
		C613.098-237.179,614.609-236.199,616.602-236.199z"/>
	<path d="M648.965-233.914h-3.555l-9.883-21.758v21.758h-3.203v-27.559h3.574l9.922,21.562v-21.562h3.145V-233.914z"/>
	<path d="M699.629-233.914h-3.359l-3.047-9.648h-9.043l-3.086,9.648h-3.32l9.004-27.559h3.848L699.629-233.914z M692.305-246.355
		l-3.613-11.406l-3.594,11.406H692.305z"/>
	<path d="M747.598-233.914h-4.004l-8.086-12.52h-3.555v12.52h-3.203v-27.559h7.793c2.617,0,4.684,0.635,6.201,1.904
		c1.516,1.27,2.275,3.037,2.275,5.303c0,1.68-0.555,3.174-1.66,4.482c-1.107,1.309-2.631,2.197-4.57,2.666L747.598-233.914z
		 M731.953-249.227h4.043c1.691,0,3.066-0.459,4.121-1.377s1.582-2.073,1.582-3.467c0-3.073-1.875-4.609-5.625-4.609h-4.121
		V-249.227z"/>
	<path d="M760.625-262c3.086,0,5.439,1.221,7.061,3.662s2.432,5.993,2.432,10.654c0,4.636-0.809,8.177-2.422,10.625
		c-1.615,2.448-3.973,3.672-7.07,3.672c-3.074,0-5.42-1.221-7.041-3.662s-2.432-5.986-2.432-10.635s0.807-8.196,2.422-10.645
		C755.188-260.776,757.539-262,760.625-262z M760.625-236.199c4.062,0,6.094-3.828,6.094-11.484c0-7.669-2.031-11.504-6.094-11.504
		c-1.98,0-3.486,0.993-4.521,2.979c-1.035,1.986-1.553,4.828-1.553,8.525c0,3.737,0.514,6.585,1.543,8.545
		C757.121-237.179,758.633-236.199,760.625-236.199z"/>
	<path d="M792.598-242.586c0,3.19-0.648,5.521-1.943,6.992c-1.297,1.472-3.266,2.207-5.908,2.207c-5.326,0-7.988-3.04-7.988-9.121
		v-18.965h3.203v18.672c0,4.401,1.594,6.602,4.785,6.602c1.602,0,2.775-0.521,3.525-1.562c0.748-1.042,1.123-2.734,1.123-5.078
		v-18.633h3.203V-242.586z"/>
	<path d="M817.559-235.867c-2.254,1.654-4.746,2.48-7.48,2.48c-3.582,0-6.297-1.214-8.145-3.643
		c-1.85-2.428-2.773-5.979-2.773-10.654c0-4.518,0.895-8.034,2.686-10.547c1.789-2.513,4.533-3.77,8.232-3.77
		c1.328,0,2.643,0.169,3.945,0.508c1.301,0.339,2.35,0.788,3.145,1.348l-1.055,2.52c-1.836-1.042-3.848-1.562-6.035-1.562
		c-2.527,0-4.412,0.925-5.654,2.773c-1.244,1.849-1.865,4.759-1.865,8.73c0,7.656,2.506,11.484,7.52,11.484
		c1.887,0,3.312-0.397,4.277-1.191v-6.797h-4.961v-2.773h8.164V-235.867z"/>
	<path d="M840.605-233.914h-3.203v-13.672h-9.434v13.672h-3.203v-27.559h3.203v11.074h9.434v-11.074h3.203V-233.914z"/>
	<path d="M872.773-261.473h5.43c3.605,0,6.496,1.228,8.672,3.682c2.174,2.455,3.262,5.824,3.262,10.107
		c0,4.375-1.104,7.764-3.311,10.166s-5.037,3.604-8.486,3.604h-5.566V-261.473z M875.977-236.707h2.266
		c2.617,0,4.688-0.97,6.211-2.91c1.523-1.94,2.285-4.629,2.285-8.066c0-3.411-0.766-6.097-2.295-8.057
		c-1.531-1.959-3.598-2.939-6.201-2.939h-2.266V-236.707z"/>
	<path d="M915.664-233.914h-3.359l-3.047-9.648h-9.043l-3.086,9.648h-3.32l9.004-27.559h3.848L915.664-233.914z M908.34-246.355
		l-3.613-11.406l-3.594,11.406H908.34z"/>
	<path d="M939.629-233.914h-4.004l-8.086-12.52h-3.555v12.52h-3.203v-27.559h7.793c2.617,0,4.684,0.635,6.201,1.904
		c1.516,1.27,2.275,3.037,2.275,5.303c0,1.68-0.555,3.174-1.66,4.482c-1.107,1.309-2.631,2.197-4.57,2.666L939.629-233.914z
		 M923.984-249.227h4.043c1.691,0,3.066-0.459,4.121-1.377s1.582-2.073,1.582-3.467c0-3.073-1.875-4.609-5.625-4.609h-4.121
		V-249.227z"/>
	<path d="M964.258-233.914h-4.043l-9.316-13.516l-2.91,3.164v10.352h-3.203v-27.559h3.203v13.203l12.227-13.203h3.691
		l-10.762,11.641L964.258-233.914z"/>
	<path d="M1006.582-258.426c-1.641-0.56-3.197-0.84-4.668-0.84c-1.668,0-3.025,0.381-4.072,1.143
		c-1.049,0.762-1.572,1.846-1.572,3.252c0,1.667,1.373,3.132,4.121,4.395c2.031,0.938,3.375,1.589,4.033,1.953
		c0.656,0.365,1.324,0.866,2.002,1.504c0.676,0.638,1.221,1.39,1.631,2.256c0.41,0.866,0.615,1.839,0.615,2.92
		c0,2.683-0.902,4.763-2.705,6.24c-1.805,1.478-3.93,2.217-6.377,2.217c-2.371,0-4.447-0.469-6.23-1.406l0.664-2.754
		c2.096,0.951,3.926,1.426,5.488,1.426c1.822,0,3.283-0.472,4.385-1.416c1.1-0.944,1.65-2.243,1.65-3.896
		c0-1.224-0.359-2.262-1.074-3.115c-0.717-0.853-2.039-1.722-3.965-2.607c-1.98-0.911-3.26-1.533-3.838-1.865
		c-0.58-0.332-1.156-0.791-1.729-1.377c-0.574-0.586-1.016-1.243-1.328-1.973c-0.312-0.729-0.469-1.523-0.469-2.383
		c0-2.278,0.82-4.056,2.461-5.332c1.641-1.276,3.717-1.914,6.23-1.914c1.836,0,3.658,0.28,5.469,0.84L1006.582-258.426z"/>
	<path d="M1032.109-233.914h-14.395v-27.559h14.277v2.793h-11.074v8.535h10.645v2.793h-10.645v10.645h11.191V-233.914z"/>
	<path d="M1059.688-233.914h-3.359l-3.047-9.648h-9.043l-3.086,9.648h-3.32l9.004-27.559h3.848L1059.688-233.914z M1052.363-246.355
		l-3.613-11.406l-3.594,11.406H1052.363z"/>
	<path d="M122.813-213.473l-8.613,15.762v11.797h-3.184v-11.797l-8.613-15.762h3.613l6.582,12.402l6.602-12.402H122.813z"/>
	<path d="M136.524-214c3.086,0,5.439,1.221,7.061,3.662s2.432,5.993,2.432,10.654c0,4.636-0.808,8.177-2.422,10.625
		c-1.615,2.448-3.972,3.672-7.07,3.672c-3.073,0-5.42-1.221-7.041-3.662s-2.432-5.986-2.432-10.635s0.807-8.196,2.422-10.645
		C131.087-212.776,133.438-214,136.524-214z M136.524-188.199c4.062,0,6.094-3.828,6.094-11.484c0-7.669-2.031-11.504-6.094-11.504
		c-1.979,0-3.486,0.993-4.521,2.979c-1.035,1.986-1.553,4.828-1.553,8.525c0,3.737,0.514,6.585,1.543,8.545
		C133.021-189.179,134.532-188.199,136.524-188.199z"/>
	<path d="M168.497-194.586c0,3.19-0.648,5.521-1.943,6.992c-1.296,1.472-3.265,2.207-5.908,2.207c-5.326,0-7.988-3.04-7.988-9.121
		v-18.965h3.203v18.672c0,4.401,1.595,6.602,4.785,6.602c1.602,0,2.776-0.521,3.525-1.562c0.749-1.042,1.123-2.734,1.123-5.078
		v-18.633h3.203V-194.586z"/>
	<path d="M195.508-185.914h-4.004l-8.086-12.52h-3.555v12.52h-3.203v-27.559h7.793c2.617,0,4.684,0.635,6.201,1.904
		c1.517,1.27,2.275,3.037,2.275,5.303c0,1.68-0.554,3.174-1.66,4.482c-1.107,1.309-2.63,2.197-4.57,2.666L195.508-185.914z
		 M179.864-201.227h4.043c1.692,0,3.066-0.459,4.121-1.377s1.582-2.073,1.582-3.467c0-3.073-1.875-4.609-5.625-4.609h-4.121
		V-201.227z"/>
	<path d="M238.458-210.426c-1.641-0.56-3.197-0.84-4.668-0.84c-1.667,0-3.024,0.381-4.072,1.143
		c-1.048,0.762-1.572,1.846-1.572,3.252c0,1.667,1.374,3.132,4.121,4.395c2.031,0.938,3.375,1.589,4.033,1.953
		c0.657,0.365,1.325,0.866,2.002,1.504c0.677,0.638,1.221,1.39,1.631,2.256c0.41,0.866,0.615,1.839,0.615,2.92
		c0,2.683-0.902,4.763-2.705,6.24c-1.804,1.478-3.929,2.217-6.377,2.217c-2.37,0-4.447-0.469-6.23-1.406l0.664-2.754
		c2.096,0.951,3.926,1.426,5.488,1.426c1.823,0,3.284-0.472,4.385-1.416c1.1-0.944,1.65-2.243,1.65-3.896
		c0-1.224-0.358-2.262-1.074-3.115c-0.716-0.853-2.038-1.722-3.965-2.607c-1.979-0.911-3.259-1.533-3.838-1.865
		c-0.58-0.332-1.156-0.791-1.729-1.377c-0.573-0.586-1.016-1.243-1.328-1.973c-0.312-0.729-0.469-1.523-0.469-2.383
		c0-2.278,0.82-4.056,2.461-5.332c1.641-1.276,3.717-1.914,6.23-1.914c1.836,0,3.659,0.28,5.469,0.84L238.458-210.426z"/>
	<path d="M268.145-185.914h-4.043l-9.316-13.516l-2.91,3.164v10.352h-3.203v-27.559h3.203v13.203l12.227-13.203h3.691
		l-10.762,11.641L268.145-185.914z"/>
	<path d="M286.719-185.914H274.2v-2.793h4.746v-21.973H274.2v-2.793h12.52v2.793h-4.57v21.973h4.57V-185.914z"/>
	<path d="M312.911-185.914h-3.555l-9.883-21.758v21.758h-3.203v-27.559h3.574l9.922,21.562v-21.562h3.145V-185.914z"/>
	<path d="M358.731-185.914h-12.52v-2.793h4.746v-21.973h-4.746v-2.793h12.52v2.793h-4.57v21.973h4.57V-185.914z"/>
	<path d="M382.481-210.426c-1.641-0.56-3.197-0.84-4.668-0.84c-1.667,0-3.024,0.381-4.072,1.143
		c-1.048,0.762-1.572,1.846-1.572,3.252c0,1.667,1.374,3.132,4.121,4.395c2.031,0.938,3.375,1.589,4.033,1.953
		c0.657,0.365,1.325,0.866,2.002,1.504c0.677,0.638,1.221,1.39,1.631,2.256c0.41,0.866,0.615,1.839,0.615,2.92
		c0,2.683-0.902,4.763-2.705,6.24c-1.804,1.478-3.929,2.217-6.377,2.217c-2.37,0-4.447-0.469-6.23-1.406l0.664-2.754
		c2.096,0.951,3.926,1.426,5.488,1.426c1.823,0,3.284-0.472,4.385-1.416c1.1-0.944,1.65-2.243,1.65-3.896
		c0-1.224-0.358-2.262-1.074-3.115c-0.716-0.853-2.038-1.722-3.965-2.607c-1.979-0.911-3.259-1.533-3.838-1.865
		c-0.58-0.332-1.156-0.791-1.729-1.377c-0.573-0.586-1.016-1.243-1.328-1.973c-0.312-0.729-0.469-1.523-0.469-2.383
		c0-2.278,0.82-4.056,2.461-5.332c1.641-1.276,3.717-1.914,6.23-1.914c1.836,0,3.659,0.28,5.469,0.84L382.481-210.426z"/>
	<path d="M430.489-210.426c-1.641-0.56-3.196-0.84-4.668-0.84c-1.667,0-3.024,0.381-4.072,1.143
		c-1.048,0.762-1.572,1.846-1.572,3.252c0,1.667,1.374,3.132,4.121,4.395c2.031,0.938,3.376,1.589,4.033,1.953
		c0.657,0.365,1.325,0.866,2.002,1.504c0.677,0.638,1.221,1.39,1.631,2.256c0.41,0.866,0.615,1.839,0.615,2.92
		c0,2.683-0.901,4.763-2.705,6.24c-1.804,1.478-3.929,2.217-6.377,2.217c-2.37,0-4.447-0.469-6.23-1.406l0.664-2.754
		c2.096,0.951,3.926,1.426,5.488,1.426c1.823,0,3.284-0.472,4.385-1.416c1.101-0.944,1.65-2.243,1.65-3.896
		c0-1.224-0.358-2.262-1.074-3.115c-0.716-0.853-2.038-1.722-3.965-2.607c-1.979-0.911-3.259-1.533-3.838-1.865
		c-0.58-0.332-1.156-0.791-1.729-1.377c-0.573-0.586-1.016-1.243-1.328-1.973c-0.312-0.729-0.469-1.523-0.469-2.383
		c0-2.278,0.82-4.056,2.461-5.332c1.641-1.276,3.717-1.914,6.23-1.914c1.836,0,3.659,0.28,5.469,0.84L430.489-210.426z"/>
	<path d="M448.575-214c3.086,0,5.439,1.221,7.061,3.662s2.432,5.993,2.432,10.654c0,4.636-0.808,8.177-2.422,10.625
		c-1.614,2.448-3.972,3.672-7.07,3.672c-3.073,0-5.42-1.221-7.041-3.662s-2.432-5.986-2.432-10.635s0.808-8.196,2.422-10.645
		C443.138-212.776,445.489-214,448.575-214z M448.575-188.199c4.062,0,6.094-3.828,6.094-11.484c0-7.669-2.031-11.504-6.094-11.504
		c-1.979,0-3.486,0.993-4.521,2.979c-1.035,1.986-1.553,4.828-1.553,8.525c0,3.737,0.515,6.585,1.543,8.545
		C445.072-189.179,446.583-188.199,448.575-188.199z"/>
	<path d="M480.235-210.68h-11.406v9.004h10.391v2.793h-10.391v12.969h-3.203v-27.559h14.609V-210.68z"/>
	<path d="M506.758-210.875h-8.496v24.961h-3.184v-24.961h-8.535v-2.598h20.215V-210.875z"/>
	<path d="M122.813-165.473l-8.613,15.762v11.797h-3.184v-11.797l-8.613-15.762h3.613l6.582,12.402l6.602-12.402H122.813z"/>
	<path d="M136.524-166c3.086,0,5.439,1.221,7.061,3.662s2.432,5.993,2.432,10.654c0,4.636-0.808,8.177-2.422,10.625
		c-1.615,2.448-3.972,3.672-7.07,3.672c-3.073,0-5.42-1.221-7.041-3.662s-2.432-5.986-2.432-10.635s0.807-8.196,2.422-10.645
		C131.087-164.776,133.438-166,136.524-166z M136.524-140.199c4.062,0,6.094-3.828,6.094-11.484c0-7.669-2.031-11.504-6.094-11.504
		c-1.979,0-3.486,0.993-4.521,2.979c-1.035,1.986-1.553,4.828-1.553,8.525c0,3.737,0.514,6.585,1.543,8.545
		C133.021-141.179,134.532-140.199,136.524-140.199z"/>
	<path d="M168.497-146.586c0,3.19-0.648,5.521-1.943,6.992c-1.296,1.472-3.265,2.207-5.908,2.207c-5.326,0-7.988-3.04-7.988-9.121
		v-18.965h3.203v18.672c0,4.401,1.595,6.602,4.785,6.602c1.602,0,2.776-0.521,3.525-1.562c0.749-1.042,1.123-2.734,1.123-5.078
		v-18.633h3.203V-146.586z"/>
	<path d="M195.508-137.914h-4.004l-8.086-12.52h-3.555v12.52h-3.203v-27.559h7.793c2.617,0,4.684,0.635,6.201,1.904
		c1.517,1.27,2.275,3.037,2.275,5.303c0,1.68-0.554,3.174-1.66,4.482c-1.107,1.309-2.63,2.197-4.57,2.666L195.508-137.914z
		 M179.864-153.227h4.043c1.692,0,3.066-0.459,4.121-1.377s1.582-2.073,1.582-3.467c0-3.073-1.875-4.609-5.625-4.609h-4.121
		V-153.227z"/>
	<path d="M243.458-165.473l-8.984,27.559h-3.848l-9.004-27.559h3.359l7.559,23.848l7.598-23.848H243.458z"/>
	<path d="M256.543-166c3.086,0,5.439,1.221,7.061,3.662s2.432,5.993,2.432,10.654c0,4.636-0.808,8.177-2.422,10.625
		c-1.615,2.448-3.972,3.672-7.07,3.672c-3.073,0-5.42-1.221-7.041-3.662s-2.432-5.986-2.432-10.635s0.807-8.196,2.422-10.645
		C251.107-164.776,253.458-166,256.543-166z M256.543-140.199c4.062,0,6.094-3.828,6.094-11.484c0-7.669-2.031-11.504-6.094-11.504
		c-1.979,0-3.486,0.993-4.521,2.979c-1.035,1.986-1.553,4.828-1.553,8.525c0,3.737,0.514,6.585,1.543,8.545
		C253.041-141.179,254.551-140.199,256.543-140.199z"/>
	<path d="M286.719-137.914H274.2v-2.793h4.746v-21.973H274.2v-2.793h12.52v2.793h-4.57v21.973h4.57V-137.914z"/>
	<path d="M313.516-139.633c-2.162,1.498-4.668,2.246-7.52,2.246c-3.568,0-6.279-1.224-8.135-3.672
		c-1.855-2.448-2.783-5.989-2.783-10.625c0-4.479,0.898-7.985,2.695-10.518c1.797-2.532,4.538-3.799,8.223-3.799
		c1.328,0,2.643,0.169,3.945,0.508c1.302,0.339,2.35,0.788,3.145,1.348l-1.055,2.52c-1.836-1.042-3.848-1.562-6.035-1.562
		c-2.539,0-4.427,0.921-5.664,2.764c-1.237,1.843-1.855,4.756-1.855,8.74c0,7.656,2.506,11.484,7.52,11.484
		c2.122,0,4.297-0.651,6.523-1.953L313.516-139.633z"/>
	<path d="M335.997-137.914h-14.395v-27.559h14.277v2.793h-11.074v8.535h10.645v2.793h-10.645v10.645h11.191V-137.914z"/>
	<path d="M382.735-137.914h-12.52v-2.793h4.746v-21.973h-4.746v-2.793h12.52v2.793h-4.57v21.973h4.57V-137.914z"/>
	<path d="M406.485-162.426c-1.641-0.56-3.197-0.84-4.668-0.84c-1.667,0-3.024,0.381-4.072,1.143
		c-1.048,0.762-1.572,1.846-1.572,3.252c0,1.667,1.374,3.132,4.121,4.395c2.031,0.938,3.375,1.589,4.033,1.953
		c0.657,0.365,1.325,0.866,2.002,1.504c0.677,0.638,1.221,1.39,1.631,2.256c0.41,0.866,0.615,1.839,0.615,2.92
		c0,2.683-0.902,4.763-2.705,6.24c-1.804,1.478-3.929,2.217-6.377,2.217c-2.37,0-4.447-0.469-6.23-1.406l0.664-2.754
		c2.096,0.951,3.926,1.426,5.488,1.426c1.823,0,3.284-0.472,4.385-1.416c1.1-0.944,1.65-2.243,1.65-3.896
		c0-1.224-0.358-2.262-1.074-3.115c-0.716-0.853-2.038-1.722-3.965-2.607c-1.979-0.911-3.259-1.533-3.838-1.865
		c-0.58-0.332-1.156-0.791-1.729-1.377c-0.573-0.586-1.016-1.243-1.328-1.973c-0.312-0.729-0.469-1.523-0.469-2.383
		c0-2.278,0.82-4.056,2.461-5.332c1.641-1.276,3.717-1.914,6.23-1.914c1.836,0,3.659,0.28,5.469,0.84L406.485-162.426z"/>
	<path d="M459.59-137.914h-3.359l-3.047-9.648h-9.043l-3.086,9.648h-3.32l9.004-27.559h3.848L459.59-137.914z M452.266-150.355
		l-3.613-11.406l-3.594,11.406H452.266z"/>
	<path d="M507.793-165.473l-3.516,27.559h-2.969l-4.688-15.527l-4.668,15.527h-3.047l-3.438-27.559h3.164l2.324,22.402l4.062-13.555
		h3.203l4.082,13.594l2.363-22.441H507.793z"/>
	<path d="M531.602-137.914h-3.359l-3.047-9.648h-9.043l-3.086,9.648h-3.32l9.004-27.559h3.848L531.602-137.914z M524.278-150.355
		l-3.613-11.406l-3.594,11.406H524.278z"/>
	<path d="M555.508-165.473l-8.984,27.559h-3.848l-9.004-27.559h3.359l7.559,23.848l7.598-23.848H555.508z"/>
	<path d="M576.036-137.914h-14.395v-27.559h14.277v2.793h-11.074v8.535h10.645v2.793h-10.645v10.645h11.191V-137.914z"/>
	<path d="M616.602-166c3.086,0,5.439,1.221,7.061,3.662s2.432,5.993,2.432,10.654c0,4.636-0.809,8.177-2.422,10.625
		c-1.615,2.448-3.973,3.672-7.07,3.672c-3.074,0-5.42-1.221-7.041-3.662s-2.432-5.986-2.432-10.635s0.807-8.196,2.422-10.645
		C611.164-164.776,613.516-166,616.602-166z M616.602-140.199c4.062,0,6.094-3.828,6.094-11.484c0-7.669-2.031-11.504-6.094-11.504
		c-1.98,0-3.486,0.993-4.521,2.979c-1.035,1.986-1.553,4.828-1.553,8.525c0,3.737,0.514,6.585,1.543,8.545
		C613.098-141.179,614.609-140.199,616.602-140.199z"/>
	<path d="M648.262-162.68h-11.406v9.004h10.391v2.793h-10.391v12.969h-3.203v-27.559h14.609V-162.68z"/>
	<path d="M680.742-165.473h5.43c3.605,0,6.496,1.228,8.672,3.682c2.174,2.455,3.262,5.824,3.262,10.107
		c0,4.375-1.104,7.764-3.311,10.166s-5.037,3.604-8.486,3.604h-5.566V-165.473z M683.945-140.707h2.266
		c2.617,0,4.688-0.97,6.211-2.91c1.523-1.94,2.285-4.629,2.285-8.066c0-3.411-0.766-6.097-2.295-8.057
		c-1.531-1.959-3.598-2.939-6.201-2.939h-2.266V-140.707z"/>
	<path d="M718.789-137.914h-12.52v-2.793h4.746v-21.973h-4.746v-2.793h12.52v2.793h-4.57v21.973h4.57V-137.914z"/>
	<path d="M742.539-162.426c-1.641-0.56-3.197-0.84-4.668-0.84c-1.668,0-3.025,0.381-4.072,1.143
		c-1.049,0.762-1.572,1.846-1.572,3.252c0,1.667,1.373,3.132,4.121,4.395c2.031,0.938,3.375,1.589,4.033,1.953
		c0.656,0.365,1.324,0.866,2.002,1.504c0.676,0.638,1.221,1.39,1.631,2.256c0.41,0.866,0.615,1.839,0.615,2.92
		c0,2.683-0.902,4.763-2.705,6.24c-1.805,1.478-3.93,2.217-6.377,2.217c-2.371,0-4.447-0.469-6.23-1.406l0.664-2.754
		c2.096,0.951,3.926,1.426,5.488,1.426c1.822,0,3.283-0.472,4.385-1.416c1.1-0.944,1.65-2.243,1.65-3.896
		c0-1.224-0.359-2.262-1.074-3.115c-0.717-0.853-2.039-1.722-3.965-2.607c-1.98-0.911-3.26-1.533-3.838-1.865
		c-0.58-0.332-1.156-0.791-1.729-1.377c-0.574-0.586-1.016-1.243-1.328-1.973c-0.312-0.729-0.469-1.523-0.469-2.383
		c0-2.278,0.82-4.056,2.461-5.332c1.641-1.276,3.717-1.914,6.23-1.914c1.836,0,3.658,0.28,5.469,0.84L742.539-162.426z"/>
	<path d="M769.59-139.633c-2.162,1.498-4.668,2.246-7.52,2.246c-3.568,0-6.279-1.224-8.135-3.672
		c-1.855-2.448-2.783-5.989-2.783-10.625c0-4.479,0.898-7.985,2.695-10.518c1.797-2.532,4.537-3.799,8.223-3.799
		c1.328,0,2.643,0.169,3.945,0.508c1.301,0.339,2.35,0.788,3.145,1.348l-1.055,2.52c-1.836-1.042-3.848-1.562-6.035-1.562
		c-2.539,0-4.428,0.921-5.664,2.764c-1.238,1.843-1.855,4.756-1.855,8.74c0,7.656,2.506,11.484,7.52,11.484
		c2.121,0,4.297-0.651,6.523-1.953L769.59-139.633z"/>
	<path d="M784.629-166c3.086,0,5.439,1.221,7.061,3.662s2.432,5.993,2.432,10.654c0,4.636-0.809,8.177-2.422,10.625
		c-1.615,2.448-3.973,3.672-7.07,3.672c-3.074,0-5.42-1.221-7.041-3.662s-2.432-5.986-2.432-10.635s0.807-8.196,2.422-10.645
		C779.191-164.776,781.543-166,784.629-166z M784.629-140.199c4.062,0,6.094-3.828,6.094-11.484c0-7.669-2.031-11.504-6.094-11.504
		c-1.98,0-3.486,0.993-4.521,2.979c-1.035,1.986-1.553,4.828-1.553,8.525c0,3.737,0.514,6.585,1.543,8.545
		C781.125-141.179,782.637-140.199,784.629-140.199z"/>
	<path d="M816.992-137.914h-3.555l-9.883-21.758v21.758h-3.203v-27.559h3.574l9.922,21.562v-21.562h3.145V-137.914z"/>
	<path d="M841.602-139.633c-2.162,1.498-4.668,2.246-7.52,2.246c-3.568,0-6.279-1.224-8.135-3.672
		c-1.855-2.448-2.783-5.989-2.783-10.625c0-4.479,0.898-7.985,2.695-10.518c1.797-2.532,4.537-3.799,8.223-3.799
		c1.328,0,2.643,0.169,3.945,0.508c1.301,0.339,2.35,0.788,3.145,1.348l-1.055,2.52c-1.836-1.042-3.848-1.562-6.035-1.562
		c-2.539,0-4.428,0.921-5.664,2.764c-1.238,1.843-1.855,4.756-1.855,8.74c0,7.656,2.506,11.484,7.52,11.484
		c2.121,0,4.297-0.651,6.523-1.953L841.602-139.633z"/>
	<path d="M864.082-137.914h-14.395v-27.559h14.277v2.793h-11.074v8.535h10.645v2.793h-10.645v10.645h11.191V-137.914z"/>
	<path d="M891.621-137.914h-4.004l-8.086-12.52h-3.555v12.52h-3.203v-27.559h7.793c2.617,0,4.684,0.635,6.201,1.904
		c1.516,1.27,2.275,3.037,2.275,5.303c0,1.68-0.555,3.174-1.66,4.482c-1.107,1.309-2.631,2.197-4.57,2.666L891.621-137.914z
		 M875.977-153.227h4.043c1.691,0,3.066-0.459,4.121-1.377s1.582-2.073,1.582-3.467c0-3.073-1.875-4.609-5.625-4.609h-4.121
		V-153.227z"/>
	<path d="M914.824-162.875h-8.496v24.961h-3.184v-24.961h-8.535v-2.598h20.215V-162.875z"/>
	<path d="M934.824-137.914h-12.52v-2.793h4.746v-21.973h-4.746v-2.793h12.52v2.793h-4.57v21.973h4.57V-137.914z"/>
	<path d="M961.016-137.914h-3.555l-9.883-21.758v21.758h-3.203v-27.559h3.574l9.922,21.562v-21.562h3.145V-137.914z"/>
	<path d="M985.586-139.867c-2.254,1.654-4.746,2.48-7.48,2.48c-3.582,0-6.297-1.214-8.145-3.643
		c-1.85-2.428-2.773-5.979-2.773-10.654c0-4.518,0.895-8.034,2.686-10.547c1.789-2.513,4.533-3.77,8.232-3.77
		c1.328,0,2.643,0.169,3.945,0.508c1.301,0.339,2.35,0.788,3.145,1.348l-1.055,2.52c-1.836-1.042-3.848-1.562-6.035-1.562
		c-2.527,0-4.412,0.925-5.654,2.773c-1.244,1.849-1.865,4.759-1.865,8.73c0,7.656,2.506,11.484,7.52,11.484
		c1.887,0,3.312-0.397,4.277-1.191v-6.797h-4.961v-2.773h8.164V-139.867z"/>
	<path d="M1033.633-139.633c-2.162,1.498-4.668,2.246-7.52,2.246c-3.568,0-6.279-1.224-8.135-3.672
		c-1.855-2.448-2.783-5.989-2.783-10.625c0-4.479,0.898-7.985,2.695-10.518c1.797-2.532,4.537-3.799,8.223-3.799
		c1.328,0,2.643,0.169,3.945,0.508c1.301,0.339,2.35,0.788,3.145,1.348l-1.055,2.52c-1.836-1.042-3.848-1.562-6.035-1.562
		c-2.539,0-4.428,0.921-5.664,2.764c-1.238,1.843-1.855,4.756-1.855,8.74c0,7.656,2.506,11.484,7.52,11.484
		c2.121,0,4.297-0.651,6.523-1.953L1033.633-139.633z"/>
	<path d="M1059.688-137.914h-3.359l-3.047-9.648h-9.043l-3.086,9.648h-3.32l9.004-27.559h3.848L1059.688-137.914z M1052.363-150.355
		l-3.613-11.406l-3.594,11.406H1052.363z"/>
	<path d="M1080.723-137.914h-15v-27.559h3.203v24.766h11.797V-137.914z"/>
	<path d="M1105.605-137.914h-3.086v-23.633l-4.16,11.309h-3.027l-4.16-11.309v23.633h-3.086v-27.559h4.16l4.609,12.559l4.59-12.559
		h4.16V-137.914z"/>
	<path d="M122.813-117.473l-8.613,15.762v11.797h-3.184v-11.797l-8.613-15.762h3.613l6.582,12.402l6.602-12.402H122.813z"/>
	<path d="M136.524-118c3.086,0,5.439,1.221,7.061,3.662s2.432,5.993,2.432,10.654c0,4.636-0.808,8.177-2.422,10.625
		c-1.615,2.448-3.972,3.672-7.07,3.672c-3.073,0-5.42-1.221-7.041-3.662s-2.432-5.986-2.432-10.635s0.807-8.196,2.422-10.645
		C131.087-116.777,133.438-118,136.524-118z M136.524-92.2c4.062,0,6.094-3.828,6.094-11.484c0-7.669-2.031-11.504-6.094-11.504
		c-1.979,0-3.486,0.993-4.521,2.979s-1.553,4.827-1.553,8.525c0,3.737,0.514,6.585,1.543,8.545
		C133.021-93.179,134.532-92.2,136.524-92.2z"/>
	<path d="M168.497-98.586c0,3.19-0.648,5.521-1.943,6.992c-1.296,1.472-3.265,2.207-5.908,2.207c-5.326,0-7.988-3.04-7.988-9.121
		v-18.965h3.203v18.672c0,4.401,1.595,6.602,4.785,6.602c1.602,0,2.776-0.521,3.525-1.562c0.749-1.042,1.123-2.734,1.123-5.078
		v-18.633h3.203V-98.586z"/>
	<path d="M195.508-89.915h-4.004l-8.086-12.52h-3.555v12.52h-3.203v-27.559h7.793c2.617,0,4.684,0.635,6.201,1.904
		c1.517,1.27,2.275,3.037,2.275,5.303c0,1.68-0.554,3.174-1.66,4.482c-1.107,1.309-2.63,2.197-4.57,2.666L195.508-89.915z
		 M179.864-105.227h4.043c1.692,0,3.066-0.459,4.121-1.377s1.582-2.073,1.582-3.467c0-3.073-1.875-4.609-5.625-4.609h-4.121
		V-105.227z"/>
	<path d="M240.586-89.915h-15v-27.559h3.203v24.766h11.797V-89.915z"/>
	<path d="M262.715-89.915h-12.52v-2.793h4.746v-21.973h-4.746v-2.793h12.52v2.793h-4.57v21.973h4.57V-89.915z"/>
	<path d="M273.594-117.473h6.992c2.643,0,4.759,0.664,6.348,1.992c1.588,1.328,2.383,3.157,2.383,5.488
		c0,2.344-0.791,4.216-2.373,5.615s-3.656,2.1-6.221,2.1h-3.926v12.363h-3.203V-117.473z M276.797-105.071h3.477
		c3.763,0,5.645-1.575,5.645-4.727c0-1.458-0.511-2.637-1.533-3.535c-1.022-0.898-2.341-1.348-3.955-1.348h-3.633V-105.071z"/>
	<path d="M310.469-114.426c-1.641-0.56-3.197-0.84-4.668-0.84c-1.667,0-3.024,0.381-4.072,1.143
		c-1.048,0.762-1.572,1.846-1.572,3.252c0,1.667,1.374,3.132,4.121,4.395c2.031,0.938,3.375,1.589,4.033,1.953
		c0.657,0.364,1.325,0.866,2.002,1.504c0.677,0.638,1.221,1.39,1.631,2.256s0.615,1.839,0.615,2.92c0,2.683-0.902,4.763-2.705,6.24
		c-1.804,1.478-3.929,2.217-6.377,2.217c-2.37,0-4.447-0.469-6.23-1.406l0.664-2.754c2.096,0.95,3.926,1.426,5.488,1.426
		c1.823,0,3.284-0.472,4.385-1.416c1.1-0.944,1.65-2.243,1.65-3.896c0-1.224-0.358-2.263-1.074-3.115
		c-0.716-0.853-2.038-1.722-3.965-2.607c-1.979-0.911-3.259-1.533-3.838-1.865c-0.58-0.332-1.156-0.791-1.729-1.377
		c-0.573-0.586-1.016-1.243-1.328-1.973s-0.469-1.523-0.469-2.383c0-2.278,0.82-4.056,2.461-5.332s3.717-1.914,6.23-1.914
		c1.836,0,3.659,0.28,5.469,0.84L310.469-114.426z"/>
	<path d="M363.575-89.915h-3.359l-3.047-9.648h-9.043l-3.086,9.648h-3.32l9.004-27.559h3.848L363.575-89.915z M356.25-102.356
		l-3.613-11.406l-3.594,11.406H356.25z"/>
	<path d="M387.54-89.915h-4.004l-8.086-12.52h-3.555v12.52h-3.203v-27.559h7.793c2.617,0,4.684,0.635,6.201,1.904
		c1.517,1.27,2.275,3.037,2.275,5.303c0,1.68-0.554,3.174-1.66,4.482c-1.107,1.309-2.63,2.197-4.57,2.666L387.54-89.915z
		 M371.895-105.227h4.043c1.692,0,3.066-0.459,4.121-1.377s1.582-2.073,1.582-3.467c0-3.073-1.875-4.609-5.625-4.609h-4.121
		V-105.227z"/>
	<path d="M408.008-89.915h-14.395v-27.559h14.277v2.793h-11.074v8.535h10.645v2.793h-10.645v10.645h11.191V-89.915z"/>
	<path d="M459.59-89.915h-3.359l-3.047-9.648h-9.043l-3.086,9.648h-3.32l9.004-27.559h3.848L459.59-89.915z M452.266-102.356
		l-3.613-11.406l-3.594,11.406H452.266z"/>
	<path d="M507.793-117.473l-3.516,27.559h-2.969l-4.688-15.527l-4.668,15.527h-3.047l-3.438-27.559h3.164l2.324,22.402l4.062-13.555
		h3.203l4.082,13.594l2.363-22.441H507.793z"/>
	<path d="M528.028-89.915h-14.395v-27.559h14.277v2.793h-11.074v8.535h10.645v2.793h-10.645v10.645h11.191V-89.915z"/>
	<path d="M552.637-89.915h-15v-27.559h3.203v24.766h11.797V-89.915z"/>
	<path d="M577.559-91.633c-2.161,1.497-4.668,2.246-7.52,2.246c-3.567,0-6.279-1.224-8.135-3.672s-2.783-5.989-2.783-10.625
		c0-4.479,0.898-7.985,2.695-10.518S566.355-118,570.04-118c1.328,0,2.644,0.169,3.945,0.508s2.351,0.788,3.145,1.348l-1.055,2.52
		c-1.836-1.042-3.848-1.562-6.035-1.562c-2.539,0-4.427,0.921-5.664,2.764s-1.855,4.756-1.855,8.74
		c0,7.656,2.507,11.484,7.52,11.484c2.122,0,4.297-0.651,6.523-1.953L577.559-91.633z"/>
	<path d="M592.599-118c3.086,0,5.439,1.221,7.061,3.662s2.432,5.993,2.432,10.654c0,4.636-0.809,8.177-2.422,10.625
		c-1.615,2.448-3.973,3.672-7.07,3.672c-3.074,0-5.42-1.221-7.041-3.662c-1.622-2.441-2.432-5.986-2.432-10.635
		s0.808-8.196,2.422-10.645C587.161-116.777,589.513-118,592.599-118z M592.599-92.2c4.062,0,6.094-3.828,6.094-11.484
		c0-7.669-2.031-11.504-6.094-11.504c-1.98,0-3.486,0.993-4.521,2.979s-1.553,4.827-1.553,8.525c0,3.737,0.514,6.585,1.543,8.545
		C589.095-93.179,590.606-92.2,592.599-92.2z"/>
	<path d="M625.527-89.915h-3.086v-23.633l-4.16,11.309h-3.027l-4.16-11.309v23.633h-3.086v-27.559h4.16l4.609,12.559l4.59-12.559
		h4.16V-89.915z"/>
	<path d="M648.047-89.915h-14.395v-27.559h14.277v2.793h-11.074v8.535H647.5v2.793h-10.645v10.645h11.191V-89.915z"/>
	<path d="M680.742-117.473h5.43c3.605,0,6.496,1.228,8.672,3.682c2.174,2.454,3.262,5.823,3.262,10.107
		c0,4.375-1.104,7.764-3.311,10.166s-5.037,3.604-8.486,3.604h-5.566V-117.473z M683.945-92.708h2.266
		c2.617,0,4.688-0.97,6.211-2.91s2.285-4.629,2.285-8.066c0-3.411-0.766-6.097-2.295-8.057c-1.531-1.96-3.598-2.939-6.201-2.939
		h-2.266V-92.708z"/>
	<path d="M718.789-89.915h-12.52v-2.793h4.746v-21.973h-4.746v-2.793h12.52v2.793h-4.57v21.973h4.57V-89.915z"/>
	<path d="M742.539-114.426c-1.641-0.56-3.197-0.84-4.668-0.84c-1.668,0-3.025,0.381-4.072,1.143
		c-1.049,0.762-1.572,1.846-1.572,3.252c0,1.667,1.373,3.132,4.121,4.395c2.031,0.938,3.375,1.589,4.033,1.953
		c0.656,0.364,1.324,0.866,2.002,1.504c0.676,0.638,1.221,1.39,1.631,2.256s0.615,1.839,0.615,2.92c0,2.683-0.902,4.763-2.705,6.24
		c-1.805,1.478-3.93,2.217-6.377,2.217c-2.371,0-4.447-0.469-6.23-1.406l0.664-2.754c2.096,0.95,3.926,1.426,5.488,1.426
		c1.822,0,3.283-0.472,4.385-1.416c1.1-0.944,1.65-2.243,1.65-3.896c0-1.224-0.359-2.263-1.074-3.115
		c-0.717-0.853-2.039-1.722-3.965-2.607c-1.98-0.911-3.26-1.533-3.838-1.865c-0.58-0.332-1.156-0.791-1.729-1.377
		c-0.574-0.586-1.016-1.243-1.328-1.973s-0.469-1.523-0.469-2.383c0-2.278,0.82-4.056,2.461-5.332s3.717-1.914,6.23-1.914
		c1.836,0,3.658,0.28,5.469,0.84L742.539-114.426z"/>
	<path d="M770.801-114.875h-8.496v24.961h-3.184v-24.961h-8.535v-2.598h20.215V-114.875z"/>
	<path d="M795.605-89.915h-4.004l-8.086-12.52h-3.555v12.52h-3.203v-27.559h7.793c2.617,0,4.684,0.635,6.201,1.904
		c1.516,1.27,2.275,3.037,2.275,5.303c0,1.68-0.555,3.174-1.66,4.482c-1.107,1.309-2.631,2.197-4.57,2.666L795.605-89.915z
		 M779.961-105.227h4.043c1.691,0,3.066-0.459,4.121-1.377s1.582-2.073,1.582-3.467c0-3.073-1.875-4.609-5.625-4.609h-4.121
		V-105.227z"/>
	<path d="M819.648-89.915h-3.359l-3.047-9.648h-9.043l-3.086,9.648h-3.32l9.004-27.559h3.848L819.648-89.915z M812.324-102.356
		l-3.613-11.406l-3.594,11.406H812.324z"/>
	<path d="M841.602-91.633c-2.162,1.497-4.668,2.246-7.52,2.246c-3.568,0-6.279-1.224-8.135-3.672s-2.783-5.989-2.783-10.625
		c0-4.479,0.898-7.985,2.695-10.518s4.537-3.799,8.223-3.799c1.328,0,2.643,0.169,3.945,0.508c1.301,0.339,2.35,0.788,3.145,1.348
		l-1.055,2.52c-1.836-1.042-3.848-1.562-6.035-1.562c-2.539,0-4.428,0.921-5.664,2.764c-1.238,1.843-1.855,4.756-1.855,8.74
		c0,7.656,2.506,11.484,7.52,11.484c2.121,0,4.297-0.651,6.523-1.953L841.602-91.633z"/>
	<path d="M866.816-114.875h-8.496v24.961h-3.184v-24.961h-8.535v-2.598h20.215V-114.875z"/>
	<path d="M886.816-89.915h-12.52v-2.793h4.746v-21.973h-4.746v-2.793h12.52v2.793h-4.57v21.973h4.57V-89.915z"/>
	<path d="M904.648-118c3.086,0,5.439,1.221,7.061,3.662s2.432,5.993,2.432,10.654c0,4.636-0.809,8.177-2.422,10.625
		c-1.615,2.448-3.973,3.672-7.07,3.672c-3.074,0-5.42-1.221-7.041-3.662s-2.432-5.986-2.432-10.635s0.807-8.196,2.422-10.645
		C899.211-116.777,901.562-118,904.648-118z M904.648-92.2c4.062,0,6.094-3.828,6.094-11.484c0-7.669-2.031-11.504-6.094-11.504
		c-1.98,0-3.486,0.993-4.521,2.979s-1.553,4.827-1.553,8.525c0,3.737,0.514,6.585,1.543,8.545
		C901.145-93.179,902.656-92.2,904.648-92.2z"/>
	<path d="M937.012-89.915h-3.555l-9.883-21.758v21.758h-3.203v-27.559h3.574l9.922,21.562v-21.562h3.145V-89.915z"/>
	<path d="M122.813-69.473L114.2-53.712v11.797h-3.184v-11.797l-8.613-15.761h3.613l6.582,12.402l6.602-12.402H122.813z"/>
	<path d="M136.524-70c3.086,0,5.439,1.221,7.061,3.662c1.621,2.441,2.432,5.994,2.432,10.654c0,4.637-0.808,8.178-2.422,10.625
		c-1.615,2.449-3.972,3.672-7.07,3.672c-3.073,0-5.42-1.221-7.041-3.662s-2.432-5.986-2.432-10.635s0.807-8.195,2.422-10.645
		C131.087-68.777,133.438-70,136.524-70z M136.524-44.2c4.062,0,6.094-3.828,6.094-11.484c0-7.668-2.031-11.504-6.094-11.504
		c-1.979,0-3.486,0.994-4.521,2.979c-1.035,1.986-1.553,4.828-1.553,8.525c0,3.738,0.514,6.586,1.543,8.545
		C133.021-45.179,134.532-44.2,136.524-44.2z"/>
	<path d="M168.497-50.587c0,3.191-0.648,5.521-1.943,6.992c-1.296,1.473-3.265,2.207-5.908,2.207c-5.326,0-7.988-3.039-7.988-9.121
		v-18.964h3.203v18.671c0,4.402,1.595,6.602,4.785,6.602c1.602,0,2.776-0.52,3.525-1.562c0.749-1.041,1.123-2.734,1.123-5.078
		v-18.632h3.203V-50.587z"/>
	<path d="M240.196-66.681H228.79v9.004h10.391v2.793H228.79v12.969h-3.203v-27.558h14.609V-66.681z"/>
	<path d="M264.512-50.587c0,3.191-0.648,5.521-1.943,6.992c-1.296,1.473-3.265,2.207-5.908,2.207c-5.326,0-7.988-3.039-7.988-9.121
		v-18.964h3.203v18.671c0,4.402,1.595,6.602,4.785,6.602c1.602,0,2.776-0.52,3.525-1.562c0.749-1.041,1.123-2.734,1.123-5.078
		v-18.632h3.203V-50.587z"/>
	<path d="M288.594-41.915h-15v-27.558h3.203v24.765h11.797V-41.915z"/>
	<path d="M312.208-66.681h-11.406v9.004h10.391v2.793h-10.391v12.969h-3.203v-27.558h14.609V-66.681z"/>
	<path d="M334.727-41.915h-12.52v-2.793h4.746v-21.973h-4.746v-2.792h12.52v2.792h-4.57v21.973h4.57V-41.915z"/>
	<path d="M360.606-41.915h-15v-27.558h3.203v24.765h11.797V-41.915z"/>
	<path d="M384.61-41.915h-15v-27.558h3.203v24.765h11.797V-41.915z"/>
	<path d="M457.5-41.915h-3.086v-23.633l-4.16,11.309h-3.027l-4.16-11.309v23.633h-3.086v-27.558h4.16l4.609,12.558l4.59-12.558h4.16
		V-41.915z"/>
	<path d="M480.02-41.915h-14.395v-27.558h14.277v2.792h-11.074v8.535h10.645v2.793h-10.645v10.645h11.191V-41.915z"/>
</g>
</svg>
